<svg xmlns="http://www.w3.org/2000/svg" xmlns:xlink="http://www.w3.org/1999/xlink" width="486.5760000000001" height="93.60000000000001"><path fill="black" stroke="black" d="M2.88 35.64L2.88 35.64Q3.74 31.25 5.15 27.14Q6.55 23.04 7.92 19.15L7.92 19.15Q7.92 18.94 7.96 18.72Q7.99 18.50 7.99 18.29L7.99 18.29L7.99 17.21Q7.99 15.98 8.35 15.05L8.35 15.05Q8.71 12.17 9.14 9.58Q9.58 6.98 9.94 4.39L9.94 4.39L9.94 4.10Q9.94 3.89 9.97 3.67Q10.01 3.46 10.01 3.31L10.01 3.31L10.01 2.88Q9.29 2.88 9.00 3.10L9.00 3.10L8.21 3.60Q7.70 3.96 7.20 4.00Q6.70 4.03 6.77 3.10L6.77 3.10Q7.34 1.15 8.57-0.07Q9.79-1.30 12.31-1.30L12.31-1.30Q13.25-1.30 14.04-0.76Q14.83-0.22 15.48 0.58Q16.13 1.37 16.60 2.27Q17.06 3.17 17.42 3.89L17.42 3.89L18.58 6.70Q18.72 7.20 18.79 7.67Q18.86 8.14 18.94 8.64L18.94 8.64Q19.15 10.94 18.58 14.00Q18.00 17.06 17.42 19.73L17.42 19.73Q16.13 22.75 14.69 25.42L14.69 25.42L13.32 29.88Q14.83 27.43 16.67 24.48Q18.50 21.53 20.48 19.04Q22.46 16.56 24.44 14.87Q26.42 13.18 28.30 13.18L28.30 13.18Q29.23 13.18 30.20 13.72Q31.18 14.26 31.93 14.98Q32.69 15.70 33.16 16.49Q33.62 17.28 33.70 17.78L33.70 17.78Q33.77 18.65 33.55 20.16Q33.34 21.67 33.08 23.26Q32.83 24.84 32.62 26.10Q32.40 27.36 32.40 27.72L32.40 27.72L32.40 27.79Q31.61 29.30 30.92 31.07Q30.24 32.83 29.66 34.60Q29.09 36.36 28.62 38.02Q28.15 39.67 27.86 40.90L27.86 40.90Q28.37 40.25 28.98 38.95Q29.59 37.66 30.35 36.07Q31.10 34.49 32.08 32.76Q33.05 31.03 34.27 29.59L34.27 29.59Q37.66 25.85 39.28 23.36Q40.90 20.88 41.72 19.37Q42.55 17.86 43.13 17.24Q43.70 16.63 45.00 16.63L45.00 16.63Q46.37 16.63 47.63 17.17Q48.89 17.71 49.86 18.58Q50.83 19.44 51.44 20.59Q52.06 21.74 52.20 22.97L52.20 22.97Q52.27 23.40 52.20 23.90Q52.13 24.41 52.20 24.98L52.20 24.98Q52.34 26.14 52.60 27.36Q52.85 28.58 52.99 29.88L52.99 29.88Q52.92 30.46 52.85 30.96Q52.78 31.46 52.63 32.04L52.63 32.04Q52.85 32.40 52.49 32.90L52.49 32.90L52.34 33.12L52.34 33.19Q52.34 33.12 52.27 33.37Q52.20 33.62 52.06 33.98L52.06 33.98L51.12 36.65L50.83 37.73Q50.69 38.52 50.54 39.17Q50.40 39.82 50.11 40.32L50.11 40.32L50.04 40.61Q49.61 41.26 49.32 42.41Q49.03 43.56 48.82 44.78Q48.60 46.01 48.38 47.02Q48.17 48.02 47.95 48.38L47.95 48.38Q47.52 48.89 47.56 50.04Q47.59 51.19 47.38 51.98L47.38 51.98Q47.30 52.06 47.30 52.70Q47.30 53.35 47.34 54.18Q47.38 55.01 47.41 55.80Q47.45 56.59 47.45 56.88L47.45 56.88Q47.38 58.03 47.56 59.44Q47.74 60.84 47.95 61.13L47.95 61.13L51.26 68.04Q51.34 68.18 51.73 68.58Q52.13 68.98 52.74 69.52Q53.35 70.06 54.07 70.70Q54.79 71.35 55.44 71.93L55.44 71.93Q56.74 72.50 57.96 72.79L57.96 72.79Q60.48 73.01 61.81 72.36Q63.14 71.71 63.79 70.92Q64.44 70.13 64.69 69.41Q64.94 68.69 65.38 68.69L65.38 68.69Q66.02 68.69 66.56 69.19Q67.10 69.70 67.18 70.27L67.18 70.27Q67.25 70.70 67.14 71.03Q67.03 71.35 66.96 71.35L66.96 71.35L66.60 71.71Q66.53 72.07 65.84 72.47Q65.16 72.86 64.33 73.26Q63.50 73.66 62.71 73.98Q61.92 74.30 61.63 74.52L61.63 74.52Q61.34 74.81 59.98 74.59Q58.61 74.38 56.99 74.02Q55.37 73.66 53.89 73.22Q52.42 72.79 51.77 72.58L51.77 72.58L51.12 72.07Q50.62 72.00 49.00 70.85Q47.38 69.70 45.54 68.18Q43.70 66.67 42.08 65.23Q40.46 63.79 39.96 63.14L39.96 63.14Q39.31 62.35 38.95 61.09Q38.59 59.83 38.30 58.75L38.30 58.75Q38.38 58.82 37.94 57.82Q37.51 56.81 37.37 54.86L37.37 54.86L37.37 54.72Q37.22 53.93 37.33 52.45Q37.44 50.98 37.66 49.28Q37.87 47.59 38.20 45.86Q38.52 44.14 38.88 42.77L38.88 42.77L39.02 42.26Q39.24 41.54 39.38 40.97Q39.53 40.39 39.67 40.03L39.67 40.03L39.74 39.96Q40.03 39.74 40.03 39.38L40.03 39.38Q40.18 38.88 40.21 38.23Q40.25 37.58 40.25 36.79L40.25 36.79Q40.25 35.64 40.25 34.49Q40.25 33.34 40.54 32.54L40.54 32.54Q41.33 31.03 41.69 28.55Q42.05 26.06 42.62 23.76L42.62 23.76Q42.12 24.05 41.69 24.26Q41.26 24.48 41.11 24.84L41.11 24.84L37.44 28.66Q36.79 29.52 36.54 30.02Q36.29 30.53 36.04 31.03Q35.78 31.54 35.32 32.18Q34.85 32.83 33.77 33.91L33.77 33.91Q33.48 34.20 33.05 35.28Q32.62 36.36 32.22 37.62Q31.82 38.88 31.50 40.00Q31.18 41.11 31.10 41.47L31.10 41.47L30.10 43.34Q30.17 43.92 29.30 45.76Q28.44 47.59 27.25 49.57Q26.06 51.55 24.91 53.14Q23.76 54.72 23.26 54.72L23.26 54.72Q22.68 54.72 21.96 54.54Q21.24 54.36 20.56 53.86Q19.87 53.35 19.33 52.49Q18.79 51.62 18.72 50.26L18.72 50.26Q18.58 48.74 18.94 46.84Q19.30 44.93 19.91 42.88Q20.52 40.82 21.31 38.66Q22.10 36.50 22.90 34.42L22.90 34.42Q23.18 32.90 23.44 31.46Q23.69 30.02 23.83 28.58L23.83 28.58Q24.26 27.07 24.70 25.56Q25.13 24.05 25.49 22.79Q25.85 21.53 26.06 20.56Q26.28 19.58 26.28 19.08L26.28 19.08Q26.28 19.01 26.28 18.61Q26.28 18.22 26.24 17.71Q26.21 17.21 26.17 16.81Q26.14 16.42 26.14 16.34L26.14 16.34Q25.20 17.21 23.98 18.65Q22.75 20.09 21.42 21.92Q20.09 23.76 18.72 25.81Q17.35 27.86 16.06 29.88L16.06 29.88Q14.04 32.18 12.78 35.21Q11.52 38.23 10.80 41.36Q10.08 44.50 9.68 47.34Q9.29 50.18 9.00 52.06L9.00 52.06Q8.64 53.71 7.74 54.83Q6.84 55.94 6.48 57.17L6.48 57.17Q6.34 57.74 6.34 58.28Q6.34 58.82 6.26 59.29Q6.19 59.76 6.01 60.05Q5.83 60.34 5.26 60.34L5.26 60.34Q3.60 60.34 2.48 58.72Q1.37 57.10 1.01 54.22L1.01 54.22Q0.79 53.35 0.86 52.34L0.86 52.34L0.86 52.13Q0.72 48.24 1.30 44.03Q1.87 39.82 2.88 35.64ZM75.17 53.50L75.17 53.50Q74.81 53.50 74.48 53.46Q74.16 53.42 73.80 53.28L73.80 53.28L73.66 53.50L73.08 54.29Q72.94 54.50 72.54 54.72Q72.14 54.94 72 55.51L72 55.51Q71.93 55.58 71.93 55.66L71.93 55.66L71.93 55.73Q71.64 56.30 70.85 57.02Q70.06 57.74 69.34 58.10L69.34 58.10Q69.12 58.25 68.90 58.39Q68.69 58.54 68.54 58.68L68.54 58.68Q68.04 59.04 67.61 59.29Q67.18 59.54 66.46 59.69L66.46 59.69Q65.52 60.05 64.69 60.12Q63.86 60.19 62.86 60.12L62.86 60.12L62.14 59.83L61.20 59.33L60.84 59.18Q60.70 59.18 60.59 59.15Q60.48 59.11 60.41 59.11L60.41 59.11Q60.05 59.11 59.47 58.97L59.47 58.97Q57.31 57.96 55.66 56.09L55.66 56.09Q53.86 53.93 53.64 50.90L53.64 50.90Q53.64 50.33 53.68 49.36Q53.71 48.38 53.75 47.38Q53.78 46.37 53.89 45.43Q54 44.50 54.07 43.92L54.07 43.92Q54.22 42.05 54.79 40.46L54.79 40.46Q55.22 39.31 55.91 38.23Q56.59 37.15 57.31 36.14L57.31 36.14Q58.32 34.56 59.47 33.41L59.47 33.41L59.47 33.48Q60.26 32.54 61.20 31.82Q62.14 31.10 63.14 30.53L63.14 30.53L63.58 30.31Q64.51 29.66 65.41 29.34Q66.31 29.02 67.25 28.87L67.25 28.87Q68.26 28.73 68.94 28.84Q69.62 28.94 70.42 29.23L70.42 29.23L70.63 29.38Q71.71 29.95 72.72 30.49Q73.73 31.03 74.56 31.72Q75.38 32.40 75.85 33.26Q76.32 34.13 76.32 35.21L76.32 35.21Q76.46 35.57 76.00 35.89Q75.53 36.22 74.23 36.07L74.23 36.07Q73.37 36.14 72.18 36.58Q70.99 37.01 69.77 37.66Q68.54 38.30 67.43 39.13Q66.31 39.96 65.59 40.75L65.59 40.75Q64.80 41.83 64.08 43.09Q63.36 44.35 62.86 45.72L62.86 45.72Q62.71 46.08 62.57 47.16Q62.42 48.24 62.28 49.25L62.28 49.25L62.06 50.54L62.06 50.83Q61.85 51.77 61.70 52.63Q61.56 53.50 61.56 54.14L61.56 54.14Q61.56 54.86 61.99 55.84Q62.42 56.81 62.93 56.95L62.93 56.95Q63.79 57.38 64.87 57.38L64.87 57.38Q65.45 57.38 66.10 57.24Q66.74 57.10 67.39 56.88L67.39 56.88Q67.75 56.74 67.97 56.48Q68.18 56.23 68.47 55.87L68.47 55.87Q68.69 55.58 68.87 55.30Q69.05 55.01 69.34 54.86L69.34 54.86Q70.34 54.07 70.99 53.03Q71.64 51.98 71.78 51.34L71.78 51.34Q70.78 50.69 69.80 48.85Q68.83 47.02 68.54 45.07L68.54 45.07Q68.76 43.13 69.12 42.12Q69.48 41.11 69.88 40.64Q70.27 40.18 70.74 40.10Q71.21 40.03 71.71 40.03L71.71 40.03Q72.50 40.03 73.51 40.43Q74.52 40.82 74.74 41.90L74.74 41.90L75.02 41.90Q75.24 42.12 75.24 42.77L75.24 42.77Q75.38 43.13 75.42 43.42Q75.46 43.70 75.38 44.28L75.38 44.28Q75.38 44.28 75.53 44.42L75.53 44.42L75.74 44.71Q76.10 45.14 76.03 45.47Q75.96 45.79 75.82 46.22L75.82 46.22L75.67 46.80L75.74 47.30L75.89 48.38Q75.89 48.60 75.42 49.50Q74.95 50.40 74.59 51.12L74.59 51.12L74.95 51.12Q75.24 51.19 75.60 51.19L75.60 51.19Q76.39 51.34 77.29 50.72Q78.19 50.11 78.98 49.10L78.98 49.10Q79.78 48.24 80.64 47.27Q81.50 46.30 82.44 45.07L82.44 45.07Q82.58 44.78 82.58 44.86L82.58 44.86Q82.94 44.42 83.20 43.92Q83.45 43.42 83.81 42.91L83.81 42.91Q84.82 41.18 85.90 39.46L85.90 39.46Q86.18 39.24 86.54 39.20Q86.90 39.17 87.19 39.35Q87.48 39.53 87.52 39.92Q87.55 40.32 87.12 40.97L87.12 40.97L87.19 40.90Q86.54 42.84 85.07 45.07Q83.59 47.30 81.86 49.21Q80.14 51.12 78.34 52.38Q76.54 53.64 75.17 53.50ZM71.86 48.46L72.79 49.46L73.08 48.82L73.44 47.74Q73.51 47.45 73.66 47.27Q73.80 47.09 73.80 46.87L73.80 46.87Q73.80 46.80 73.84 46.76Q73.87 46.73 73.87 46.66L73.87 46.66L73.51 45.07Q73.37 44.14 72.65 43.42L72.65 43.42Q72.50 43.34 72.32 43.24Q72.14 43.13 71.93 43.13L71.93 43.13Q71.93 43.06 71.71 43.27L71.71 43.27Q71.71 43.27 71.57 43.85L71.57 43.85Q71.64 43.99 71.57 44.24Q71.50 44.50 71.42 44.71L71.42 44.71Q71.35 45.07 71.32 45.72Q71.28 46.37 71.86 47.95L71.86 47.95L71.86 48.46ZM103.68 55.58L103.68 55.58Q102.60 55.58 101.81 55.08L101.81 55.08Q100.87 54.94 100.12 54.25Q99.36 53.57 98.82 52.60Q98.28 51.62 97.96 50.51Q97.63 49.39 97.56 48.38L97.56 48.38Q97.49 47.74 97.60 47.05Q97.70 46.37 97.85 45.58L97.85 45.58Q98.06 44.57 98.24 43.34Q98.42 42.12 98.28 40.75L98.28 40.75L100.22 35.64Q100.37 34.63 100.55 33.91Q100.73 33.19 100.87 32.83L100.87 32.83Q101.09 32.18 100.73 32.18L100.73 32.18L99.79 32.83Q99.36 33.19 98.64 33.84Q97.92 34.49 97.20 35.17Q96.48 35.86 95.94 36.54Q95.40 37.22 95.47 37.51L95.47 37.51L95.47 37.73L94.97 38.66Q94.32 39.67 93.67 40.72Q93.02 41.76 92.38 42.91L92.38 42.91Q92.38 43.06 92.41 43.16Q92.45 43.27 92.45 43.34L92.45 43.34L92.45 43.78Q92.52 44.14 92.52 44.46Q92.52 44.78 92.52 45.14L92.52 45.14L92.59 46.44L92.66 47.30Q91.87 48.53 91.04 49.68Q90.22 50.83 89.42 51.77L89.42 51.77Q89.42 51.84 89.28 52.13L89.28 52.13Q89.21 52.70 88.96 53.39Q88.70 54.07 88.13 54.22L88.13 54.22Q87.55 54.79 87.12 55.40Q86.69 56.02 86.33 56.59L86.33 56.59Q85.97 57.17 85.68 57.53Q85.39 57.89 85.18 57.89L85.18 57.89Q84.82 57.89 84.31 57.67Q83.81 57.46 83.30 57.02Q82.80 56.59 82.44 56.02Q82.08 55.44 82.01 54.79L82.01 54.79Q81.86 53.50 82.30 51.84L82.30 51.84L81.86 49.10Q82.01 48.02 82.26 46.51Q82.51 45.00 82.87 43.78L82.87 43.78Q82.73 41.69 83.34 39.53Q83.95 37.37 84.74 35.21L84.74 35.21Q85.32 33.48 85.90 31.57Q86.47 29.66 86.76 27.79L86.76 27.79L86.76 25.78Q87.05 25.20 87.26 24.66Q87.48 24.12 87.70 23.54L87.70 23.54Q88.20 22.54 88.60 21.49Q88.99 20.45 89.35 19.44L89.35 19.44L89.57 18.65L92.16 13.61Q92.66 12.53 92.99 11.52Q93.31 10.51 93.60 9.72L93.60 9.72Q94.39 7.27 94.97 7.27L94.97 7.27Q95.33 7.27 95.98 7.63Q96.62 7.99 97.31 8.60Q97.99 9.22 98.53 10.04Q99.07 10.87 99.22 11.88L99.22 11.88Q99.29 12.46 99.22 13.14Q99.14 13.82 98.93 14.62L98.93 14.62Q99.50 15.41 99.94 16.24Q100.37 17.06 100.37 17.57L100.37 17.57Q100.37 19.01 99.40 20.66Q98.42 22.32 97.27 23.76L97.27 23.76Q96.70 25.34 96.05 26.86Q95.40 28.37 94.82 29.81L94.82 29.81Q93.82 32.26 93.10 34.09Q92.38 35.93 92.23 36.86L92.23 36.86L96.70 32.47L97.85 31.54Q97.99 31.39 98.57 31.03Q99.14 30.67 99.36 30.60L99.36 30.60Q101.09 29.59 102.20 29.16Q103.32 28.73 105.05 28.73L105.05 28.73Q107.35 28.73 108.43 30.13Q109.51 31.54 109.87 33.84L109.87 33.84Q110.02 35.21 109.08 37.37L109.08 37.37L109.30 39.46L107.14 44.35Q107.21 45.00 107.14 46.19Q107.06 47.38 106.20 48.31L106.20 48.31L105.98 48.53L105.98 48.46Q105.19 49.97 104.62 51.26Q104.04 52.56 104.11 53.35L104.11 53.35Q104.11 54.07 104.90 54.07L104.90 54.07Q105.98 54.07 107.32 53.14Q108.65 52.20 110.12 50.58Q111.60 48.96 113.04 46.87Q114.48 44.78 115.78 42.62L115.78 42.62L116.35 41.54L116.28 41.54Q116.64 40.90 117.11 40.00Q117.58 39.10 118.08 38.30Q118.58 37.51 119.09 36.97Q119.59 36.43 120.10 36.43L120.10 36.43Q120.67 36.43 120.74 37.15L120.74 37.15Q120.74 37.51 120.60 37.80L120.60 37.80L119.95 39.17L120.02 39.17Q119.66 40.03 119.12 41.15Q118.58 42.26 118.01 43.45Q117.43 44.64 116.78 45.72Q116.14 46.80 115.56 47.59L115.56 47.59Q113.69 49.90 111.67 52.13L111.67 52.13Q111.31 52.63 110.70 53.28Q110.09 53.93 109.37 54.54Q108.65 55.15 107.93 55.55Q107.21 55.94 106.70 55.94L106.70 55.94Q106.34 55.94 105.91 55.87Q105.48 55.80 105.12 55.73L105.12 55.73Q104.76 55.66 104.33 55.62Q103.90 55.58 103.68 55.58ZM130.97 29.52L130.97 29.52Q131.69 29.74 132.66 30.24Q133.63 30.74 134.53 31.43Q135.43 32.11 136.04 32.80Q136.66 33.48 136.73 33.98L136.73 33.98Q136.87 35.14 135.86 35.35L135.86 35.35Q135.72 35.28 135.36 35.28L135.36 35.28Q134.14 35.28 132.08 35.78Q130.03 36.29 128.81 37.58L128.81 37.58L127.51 38.81Q126.50 39.67 125.53 40.68Q124.56 41.69 124.27 42.91L124.27 42.91Q123.70 43.78 123.37 44.57Q123.05 45.36 122.69 46.22L122.69 46.22L122.04 47.59Q121.68 48.38 121.36 49.07Q121.03 49.75 120.67 50.76L120.67 50.76L120.60 51.19L120.60 51.12Q120.46 51.48 120.35 51.95Q120.24 52.42 120.24 52.56L120.24 52.56L120.31 52.63L120.46 53.35Q120.46 53.71 120.60 54.29L120.60 54.29Q120.74 54.58 120.74 54.79L120.74 54.79Q120.82 55.87 121.54 55.87L121.54 55.87L121.75 55.87Q122.18 55.94 122.87 55.69Q123.55 55.44 124.78 54.07L124.78 54.07Q125.64 52.85 126.54 51.16Q127.44 49.46 128.23 47.81L128.23 47.81Q128.81 46.58 129.35 45.47Q129.89 44.35 130.46 43.56L130.46 43.56Q130.68 43.13 130.86 42.55Q131.04 41.98 131.18 41.40L131.18 41.40Q131.40 40.75 131.62 40.43Q131.83 40.10 131.98 39.89L131.98 39.89Q132.19 39.67 132.55 38.74L132.55 38.74Q132.55 38.30 133.27 38.02Q133.99 37.73 135.00 37.73L135.00 37.73Q135.29 37.73 135.50 37.69Q135.72 37.66 135.94 37.66L135.94 37.66Q136.87 37.58 137.74 37.73Q138.60 37.87 139.46 38.66L139.46 38.66Q139.54 38.81 139.54 38.95L139.54 38.95L139.54 39.02L139.68 39.10L139.61 39.10Q139.90 39.31 140.11 39.53Q140.33 39.74 140.40 40.18L140.40 40.18Q140.47 40.32 140.22 41.00Q139.97 41.69 139.68 42.41L139.68 42.41Q139.46 42.98 139.32 43.42Q139.18 43.85 139.18 43.99L139.18 43.99Q139.18 44.28 139.03 44.71L139.03 44.71Q138.89 45.07 138.71 45.65Q138.53 46.22 138.53 47.45L138.53 47.45Q138.46 48.31 138.28 49.00Q138.10 49.68 137.81 50.33L137.81 50.33Q137.66 50.76 137.52 51.19Q137.38 51.62 137.23 52.13L137.23 52.13L136.37 54.72Q135.65 56.16 135.72 56.52L135.72 56.52Q135.72 56.66 136.12 56.74Q136.51 56.81 136.80 56.81L136.80 56.81Q137.45 56.81 138.24 56.23Q139.03 55.66 139.82 54.83Q140.62 54.00 141.34 53.03Q142.06 52.06 142.56 51.19L142.56 51.19L144.72 47.38Q145.01 46.94 145.44 46.33Q145.87 45.72 146.23 44.86L146.23 44.86Q146.45 44.35 146.88 43.74Q147.31 43.13 147.60 42.55L147.60 42.55L149.33 39.82Q149.69 39.46 150.19 39.46L150.19 39.46Q150.84 39.46 150.91 40.18L150.91 40.18Q150.91 40.61 150.84 40.97L150.84 40.97Q150.84 41.26 150.19 42.19L150.19 42.19Q149.76 42.77 149.08 43.78Q148.39 44.78 147.46 46.44L147.46 46.44Q147.10 46.94 146.38 48.06Q145.66 49.18 144.86 50.47L144.86 50.47Q144.00 51.91 143.21 53.17Q142.42 54.43 141.98 55.01L141.98 55.01Q141.77 55.51 141.16 56.23Q140.54 56.95 139.79 57.60Q139.03 58.25 138.28 58.75Q137.52 59.26 137.02 59.26L137.02 59.26L136.44 59.47Q136.01 59.62 135.61 59.76Q135.22 59.90 134.78 59.90L134.78 59.90Q133.92 59.90 133.09 59.44Q132.26 58.97 131.58 58.25Q130.90 57.53 130.39 56.70Q129.89 55.87 129.67 55.22L129.67 55.22Q129.31 54.29 129.31 53.21L129.31 53.21Q129.24 52.92 129.24 52.60Q129.24 52.27 129.24 51.98L129.24 51.98Q129.24 51.70 129.24 51.41Q129.24 51.12 129.17 50.76L129.17 50.76L129.10 50.18Q129.10 50.11 129.13 50.08Q129.17 50.04 129.17 49.97L129.17 49.97Q129.24 49.61 129.24 49.68Q129.24 49.75 129.24 49.61L129.24 49.61L128.23 51.12L128.23 51.05L126.86 53.78Q126.58 54.07 126.43 54.32Q126.29 54.58 126.14 54.86L126.14 54.86Q125.57 55.80 124.88 56.59Q124.20 57.38 123.55 57.46L123.55 57.46L123.26 57.67Q122.54 58.25 121.93 58.64Q121.32 59.04 120.82 59.04L120.82 59.04Q119.52 59.04 118.04 58.64Q116.57 58.25 115.31 57.38Q114.05 56.52 113.18 55.15Q112.32 53.78 112.10 51.84L112.10 51.84Q112.03 50.62 112.28 49.21Q112.54 47.81 113.04 46.30Q113.54 44.78 114.26 43.27Q114.98 41.76 115.85 40.39L115.85 40.39L116.50 38.95Q117.36 37.80 118.19 36.79Q119.02 35.78 119.81 34.99L119.81 34.99Q121.32 33.41 122.83 32.33L122.83 32.33L123.91 31.82L123.84 31.82Q125.28 30.82 127.33 30.17Q129.38 29.52 130.61 29.52L130.61 29.52L130.97 29.52ZM178.13 56.52L178.13 56.52Q176.69 56.23 175.57 54.68Q174.46 53.14 174.10 50.76L174.10 50.76Q173.74 50.18 173.59 49.39L173.59 49.39Q173.52 48.02 174.02 45.79Q174.53 43.56 175.18 41.62L175.18 41.62Q175.10 40.61 175.36 39.46Q175.61 38.30 176.04 37.12Q176.47 35.93 176.98 34.85Q177.48 33.77 177.84 32.98L177.84 32.98Q177.98 32.62 178.16 32.36Q178.34 32.11 178.42 31.90L178.42 31.90Q177.77 32.18 176.76 33.01Q175.75 33.84 174.67 34.99Q173.59 36.14 172.48 37.55Q171.36 38.95 170.50 40.39L170.50 40.39Q170.57 40.75 170.86 41.33L170.86 41.33Q171.00 41.76 171.18 42.12Q171.36 42.48 171.36 42.84L171.36 42.84Q171.36 42.91 171.32 43.60Q171.29 44.28 171.14 45.22L171.14 45.22Q171.00 46.01 170.89 46.94Q170.78 47.88 170.71 48.71Q170.64 49.54 170.60 50.11Q170.57 50.69 170.64 50.83L170.64 50.83Q170.06 51.62 169.70 52.56Q169.34 53.50 168.62 54.58L168.62 54.58Q167.90 54.50 166.86 54.29Q165.82 54.07 164.81 53.57L164.81 53.57Q164.74 53.57 164.74 53.64Q164.74 53.71 164.52 53.71L164.52 53.71Q164.23 53.71 163.73 53.32Q163.22 52.92 162.72 52.20Q162.22 51.48 161.82 50.54Q161.42 49.61 161.35 48.53L161.35 48.53Q161.21 46.94 161.64 44.89Q162.07 42.84 162.72 40.75L162.72 40.75L162.58 40.46L162.58 40.32Q162.58 39.89 162.90 39.02Q163.22 38.16 163.58 37.37L163.58 37.37Q163.58 37.22 163.73 36.94Q163.87 36.65 163.94 36.43L163.94 36.43L163.73 35.57L164.45 33.98Q164.81 33.19 165.02 32.69Q165.24 32.18 165.38 31.90L165.38 31.90Q164.95 32.18 164.23 32.90Q163.51 33.62 162.65 34.63Q161.78 35.64 160.88 36.83Q159.98 38.02 159.19 39.17L159.19 39.17L159.19 39.10L158.26 41.26L156.96 44.35L155.23 49.82L155.23 50.18Q155.23 50.54 155.30 50.69L155.30 50.69L154.66 52.34Q154.15 53.71 153.50 54.76Q152.86 55.80 150.98 56.02L150.98 56.02L149.69 57.46Q149.54 57.46 149.04 56.99Q148.54 56.52 148.00 55.73Q147.46 54.94 146.99 53.78Q146.52 52.63 146.38 51.26L146.38 51.26L146.38 51.34Q146.30 50.76 146.38 50.36Q146.45 49.97 146.59 49.46L146.59 49.46Q146.59 49.32 146.63 49.21Q146.66 49.10 146.66 48.96L146.66 48.96Q146.52 48.89 146.52 48.67L146.52 48.67Q146.45 47.66 146.81 46.40Q147.17 45.14 147.53 43.99L147.53 43.99L147.10 42.19L148.54 38.45L149.04 35.71Q149.26 34.49 149.51 33.16Q149.76 31.82 150.05 30.71Q150.34 29.59 150.62 28.76Q150.91 27.94 151.20 27.79L151.20 27.79Q152.14 26.78 152.93 26.06Q153.72 25.34 154.08 25.34L154.08 25.34Q154.58 25.34 155.23 25.74Q155.88 26.14 156.53 26.93Q157.18 27.72 157.68 28.87Q158.18 30.02 158.33 31.61L158.33 31.61Q158.47 32.69 158.29 33.73Q158.11 34.78 157.97 35.64L157.97 35.64Q157.82 36.07 157.79 36.25Q157.75 36.43 157.75 36.72L157.75 36.72L158.83 35.50Q159.62 34.42 160.85 33.05Q162.07 31.68 163.37 30.42Q164.66 29.16 165.78 28.26Q166.90 27.36 167.54 27.36L167.54 27.36Q168.34 27.36 169.02 27.94Q169.70 28.51 170.24 29.41Q170.78 30.31 171.11 31.39Q171.43 32.47 171.58 33.41L171.58 33.41Q171.58 34.34 171.36 35.28L171.36 35.28L172.73 33.91L174.31 32.54L174.24 32.54L174.67 32.18Q175.46 31.39 176.33 30.49Q177.19 29.59 178.06 28.84Q178.92 28.08 179.68 27.61Q180.43 27.14 180.94 27.14L180.94 27.14Q182.23 27.14 183.35 28.55Q184.46 29.95 184.68 31.82L184.68 31.82Q184.68 32.11 184.64 32.65Q184.61 33.19 184.61 33.55L184.61 33.55Q185.11 34.27 185.18 34.92L185.18 34.92Q185.04 35.93 184.82 36.90Q184.61 37.87 184.25 38.88L184.25 38.88Q184.39 39.24 184.39 39.46Q184.39 39.67 184.39 39.96L184.39 39.96L183.17 42.62L182.74 43.49L182.81 43.49Q182.52 45.07 182.20 46.66Q181.87 48.24 181.51 49.75L181.51 49.75Q181.51 49.90 181.55 50.11Q181.58 50.33 181.58 50.47L181.58 50.47Q180.65 52.70 180.65 53.42L180.65 53.42Q180.65 53.57 180.79 53.71L180.79 53.71Q181.44 53.50 182.45 52.63Q183.46 51.77 184.57 50.51Q185.69 49.25 186.91 47.77Q188.14 46.30 189.22 44.78L189.22 44.78Q189.65 44.14 190.15 43.34Q190.66 42.55 191.09 41.69L191.09 41.69Q191.66 40.68 192.31 39.64Q192.96 38.59 193.54 37.73Q194.11 36.86 194.65 36.32Q195.19 35.78 195.55 35.78L195.55 35.78Q196.34 35.78 196.34 36.58L196.34 36.58Q196.49 37.08 196.13 37.66L196.13 37.66L195.26 39.10L195.26 39.02Q194.33 40.90 192.96 43.13Q191.59 45.36 190.08 47.52L190.08 47.52L189.14 48.82Q188.14 50.26 187.09 51.62Q186.05 52.99 184.86 54.14Q183.67 55.30 182.30 55.98Q180.94 56.66 179.28 56.66L179.28 56.66Q178.99 56.66 178.78 56.63Q178.56 56.59 178.27 56.52L178.27 56.52L178.13 56.52ZM221.26 56.52L221.26 56.52Q219.82 56.23 218.70 54.68Q217.58 53.14 217.22 50.76L217.22 50.76Q216.86 50.18 216.72 49.39L216.72 49.39Q216.65 48.02 217.15 45.79Q217.66 43.56 218.30 41.62L218.30 41.62Q218.23 40.61 218.48 39.46Q218.74 38.30 219.17 37.12Q219.60 35.93 220.10 34.85Q220.61 33.77 220.97 32.98L220.97 32.98Q221.11 32.62 221.29 32.36Q221.47 32.11 221.54 31.90L221.54 31.90Q220.90 32.18 219.89 33.01Q218.88 33.84 217.80 34.99Q216.72 36.14 215.60 37.55Q214.49 38.95 213.62 40.39L213.62 40.39Q213.70 40.75 213.98 41.33L213.98 41.33Q214.13 41.76 214.31 42.12Q214.49 42.48 214.49 42.84L214.49 42.84Q214.49 42.91 214.45 43.60Q214.42 44.28 214.27 45.22L214.27 45.22Q214.13 46.01 214.02 46.94Q213.91 47.88 213.84 48.71Q213.77 49.54 213.73 50.11Q213.70 50.69 213.77 50.83L213.77 50.83Q213.19 51.62 212.83 52.56Q212.47 53.50 211.75 54.58L211.75 54.58Q211.03 54.50 209.99 54.29Q208.94 54.07 207.94 53.57L207.94 53.57Q207.86 53.57 207.86 53.64Q207.86 53.71 207.65 53.71L207.65 53.71Q207.36 53.71 206.86 53.32Q206.35 52.92 205.85 52.20Q205.34 51.48 204.95 50.54Q204.55 49.61 204.48 48.53L204.48 48.53Q204.34 46.94 204.77 44.89Q205.20 42.84 205.85 40.75L205.85 40.75L205.70 40.46L205.70 40.32Q205.70 39.89 206.03 39.02Q206.35 38.16 206.71 37.37L206.71 37.37Q206.71 37.22 206.86 36.94Q207.00 36.65 207.07 36.43L207.07 36.43L206.86 35.57L207.58 33.98Q207.94 33.19 208.15 32.69Q208.37 32.18 208.51 31.90L208.51 31.90Q208.08 32.18 207.36 32.90Q206.64 33.62 205.78 34.63Q204.91 35.64 204.01 36.83Q203.11 38.02 202.32 39.17L202.32 39.17L202.32 39.10L201.38 41.26L200.09 44.35L198.36 49.82L198.36 50.18Q198.36 50.54 198.43 50.69L198.43 50.69L197.78 52.34Q197.28 53.71 196.63 54.76Q195.98 55.80 194.11 56.02L194.11 56.02L192.82 57.46Q192.67 57.46 192.17 56.99Q191.66 56.52 191.12 55.73Q190.58 54.94 190.12 53.78Q189.65 52.63 189.50 51.26L189.50 51.26L189.50 51.34Q189.43 50.76 189.50 50.36Q189.58 49.97 189.72 49.46L189.72 49.46Q189.72 49.32 189.76 49.21Q189.79 49.10 189.79 48.96L189.79 48.96Q189.65 48.89 189.65 48.67L189.65 48.67Q189.58 47.66 189.94 46.40Q190.30 45.14 190.66 43.99L190.66 43.99L190.22 42.19L191.66 38.45L192.17 35.71Q192.38 34.49 192.64 33.16Q192.89 31.82 193.18 30.71Q193.46 29.59 193.75 28.76Q194.04 27.94 194.33 27.79L194.33 27.79Q195.26 26.78 196.06 26.06Q196.85 25.34 197.21 25.34L197.21 25.34Q197.71 25.34 198.36 25.74Q199.01 26.14 199.66 26.93Q200.30 27.72 200.81 28.87Q201.31 30.02 201.46 31.61L201.46 31.61Q201.60 32.69 201.42 33.73Q201.24 34.78 201.10 35.64L201.10 35.64Q200.95 36.07 200.92 36.25Q200.88 36.43 200.88 36.72L200.88 36.72L201.96 35.50Q202.75 34.42 203.98 33.05Q205.20 31.68 206.50 30.42Q207.79 29.16 208.91 28.26Q210.02 27.36 210.67 27.36L210.67 27.36Q211.46 27.36 212.15 27.94Q212.83 28.51 213.37 29.41Q213.91 30.31 214.24 31.39Q214.56 32.47 214.70 33.41L214.70 33.41Q214.70 34.34 214.49 35.28L214.49 35.28L215.86 33.91L217.44 32.54L217.37 32.54L217.80 32.18Q218.59 31.39 219.46 30.49Q220.32 29.59 221.18 28.84Q222.05 28.08 222.80 27.61Q223.56 27.14 224.06 27.14L224.06 27.14Q225.36 27.14 226.48 28.55Q227.59 29.95 227.81 31.82L227.81 31.82Q227.81 32.11 227.77 32.65Q227.74 33.19 227.74 33.55L227.74 33.55Q228.24 34.27 228.31 34.92L228.31 34.92Q228.17 35.93 227.95 36.90Q227.74 37.87 227.38 38.88L227.38 38.88Q227.52 39.24 227.52 39.46Q227.52 39.67 227.52 39.96L227.52 39.96L226.30 42.62L225.86 43.49L225.94 43.49Q225.65 45.07 225.32 46.66Q225.00 48.24 224.64 49.75L224.64 49.75Q224.64 49.90 224.68 50.11Q224.71 50.33 224.71 50.47L224.71 50.47Q223.78 52.70 223.78 53.42L223.78 53.42Q223.78 53.57 223.92 53.71L223.92 53.71Q224.57 53.50 225.58 52.63Q226.58 51.77 227.70 50.51Q228.82 49.25 230.04 47.77Q231.26 46.30 232.34 44.78L232.34 44.78Q232.78 44.14 233.28 43.34Q233.78 42.55 234.22 41.69L234.22 41.69Q234.79 40.68 235.44 39.64Q236.09 38.59 236.66 37.73Q237.24 36.86 237.78 36.32Q238.32 35.78 238.68 35.78L238.68 35.78Q239.47 35.78 239.47 36.58L239.47 36.58Q239.62 37.08 239.26 37.66L239.26 37.66L238.39 39.10L238.39 39.02Q237.46 40.90 236.09 43.13Q234.72 45.36 233.21 47.52L233.21 47.52L232.27 48.82Q231.26 50.26 230.22 51.62Q229.18 52.99 227.99 54.14Q226.80 55.30 225.43 55.98Q224.06 56.66 222.41 56.66L222.41 56.66Q222.12 56.66 221.90 56.63Q221.69 56.59 221.40 56.52L221.40 56.52L221.26 56.52ZM249.12 29.52L249.12 29.52Q249.84 29.74 250.81 30.24Q251.78 30.74 252.68 31.43Q253.58 32.11 254.20 32.80Q254.81 33.48 254.88 33.98L254.88 33.98Q255.02 35.14 254.02 35.35L254.02 35.35Q253.87 35.28 253.51 35.28L253.51 35.28Q252.29 35.28 250.24 35.78Q248.18 36.29 246.96 37.58L246.96 37.58L245.66 38.81Q244.66 39.67 243.68 40.68Q242.71 41.69 242.42 42.91L242.42 42.91Q241.85 43.78 241.52 44.57Q241.20 45.36 240.84 46.22L240.84 46.22L240.19 47.59Q239.83 48.38 239.51 49.07Q239.18 49.75 238.82 50.76L238.82 50.76L238.75 51.19L238.75 51.12Q238.61 51.48 238.50 51.95Q238.39 52.42 238.39 52.56L238.39 52.56L238.46 52.63L238.61 53.35Q238.61 53.71 238.75 54.29L238.75 54.29Q238.90 54.58 238.90 54.79L238.90 54.79Q238.97 55.87 239.69 55.87L239.69 55.87L239.90 55.87Q240.34 55.94 241.02 55.69Q241.70 55.44 242.93 54.07L242.93 54.07Q243.79 52.85 244.69 51.16Q245.59 49.46 246.38 47.81L246.38 47.81Q246.96 46.58 247.50 45.47Q248.04 44.35 248.62 43.56L248.62 43.56Q248.83 43.13 249.01 42.55Q249.19 41.98 249.34 41.40L249.34 41.40Q249.55 40.75 249.77 40.43Q249.98 40.10 250.13 39.89L250.13 39.89Q250.34 39.67 250.70 38.74L250.70 38.74Q250.70 38.30 251.42 38.02Q252.14 37.73 253.15 37.73L253.15 37.73Q253.44 37.73 253.66 37.69Q253.87 37.66 254.09 37.66L254.09 37.66Q255.02 37.58 255.89 37.73Q256.75 37.87 257.62 38.66L257.62 38.66Q257.69 38.81 257.69 38.95L257.69 38.95L257.69 39.02L257.83 39.10L257.76 39.10Q258.05 39.31 258.26 39.53Q258.48 39.74 258.55 40.18L258.55 40.18Q258.62 40.32 258.37 41.00Q258.12 41.69 257.83 42.41L257.83 42.41Q257.62 42.98 257.47 43.42Q257.33 43.85 257.33 43.99L257.33 43.99Q257.33 44.28 257.18 44.71L257.18 44.71Q257.04 45.07 256.86 45.65Q256.68 46.22 256.68 47.45L256.68 47.45Q256.61 48.31 256.43 49.00Q256.25 49.68 255.96 50.33L255.96 50.33Q255.82 50.76 255.67 51.19Q255.53 51.62 255.38 52.13L255.38 52.13L254.52 54.72Q253.80 56.16 253.87 56.52L253.87 56.52Q253.87 56.66 254.27 56.74Q254.66 56.81 254.95 56.81L254.95 56.81Q255.60 56.81 256.39 56.23Q257.18 55.66 257.98 54.83Q258.77 54.00 259.49 53.03Q260.21 52.06 260.71 51.19L260.71 51.19L262.87 47.38Q263.16 46.94 263.59 46.33Q264.02 45.72 264.38 44.86L264.38 44.86Q264.60 44.35 265.03 43.74Q265.46 43.13 265.75 42.55L265.75 42.55L267.48 39.82Q267.84 39.46 268.34 39.46L268.34 39.46Q268.99 39.46 269.06 40.18L269.06 40.18Q269.06 40.61 268.99 40.97L268.99 40.97Q268.99 41.26 268.34 42.19L268.34 42.19Q267.91 42.77 267.23 43.78Q266.54 44.78 265.61 46.44L265.61 46.44Q265.25 46.94 264.53 48.06Q263.81 49.18 263.02 50.47L263.02 50.47Q262.15 51.91 261.36 53.17Q260.57 54.43 260.14 55.01L260.14 55.01Q259.92 55.51 259.31 56.23Q258.70 56.95 257.94 57.60Q257.18 58.25 256.43 58.75Q255.67 59.26 255.17 59.26L255.17 59.26L254.59 59.47Q254.16 59.62 253.76 59.76Q253.37 59.90 252.94 59.90L252.94 59.90Q252.07 59.90 251.24 59.44Q250.42 58.97 249.73 58.25Q249.05 57.53 248.54 56.70Q248.04 55.87 247.82 55.22L247.82 55.22Q247.46 54.29 247.46 53.21L247.46 53.21Q247.39 52.92 247.39 52.60Q247.39 52.27 247.39 51.98L247.39 51.98Q247.39 51.70 247.39 51.41Q247.39 51.12 247.32 50.76L247.32 50.76L247.25 50.18Q247.25 50.11 247.28 50.08Q247.32 50.04 247.32 49.97L247.32 49.97Q247.39 49.61 247.39 49.68Q247.39 49.75 247.39 49.61L247.39 49.61L246.38 51.12L246.38 51.05L245.02 53.78Q244.73 54.07 244.58 54.32Q244.44 54.58 244.30 54.86L244.30 54.86Q243.72 55.80 243.04 56.59Q242.35 57.38 241.70 57.46L241.70 57.46L241.42 57.67Q240.70 58.25 240.08 58.64Q239.47 59.04 238.97 59.04L238.97 59.04Q237.67 59.04 236.20 58.64Q234.72 58.25 233.46 57.38Q232.20 56.52 231.34 55.15Q230.47 53.78 230.26 51.84L230.26 51.84Q230.18 50.62 230.44 49.21Q230.69 47.81 231.19 46.30Q231.70 44.78 232.42 43.27Q233.14 41.76 234.00 40.39L234.00 40.39L234.65 38.95Q235.51 37.80 236.34 36.79Q237.17 35.78 237.96 34.99L237.96 34.99Q239.47 33.41 240.98 32.33L240.98 32.33L242.06 31.82L241.99 31.82Q243.43 30.82 245.48 30.17Q247.54 29.52 248.76 29.52L248.76 29.52L249.12 29.52ZM288.29 55.73L288.29 55.73Q288.36 56.16 288.58 56.16L288.58 56.16Q289.44 55.80 290.74 54.36Q292.03 52.92 293.51 50.98Q294.98 49.03 296.42 46.80Q297.86 44.57 299.02 42.55L299.02 42.55Q299.23 42.19 299.56 41.51Q299.88 40.82 300.24 39.96L300.24 39.96Q300.89 38.52 301.50 37.26Q302.11 36.00 302.69 36.00L302.69 36.00Q303.41 36.00 303.41 36.50L303.41 36.50Q303.48 36.79 303.30 37.40Q303.12 38.02 302.47 39.24L302.47 39.24L302.47 39.82Q302.62 41.18 301.61 42.98Q300.60 44.78 299.38 46.51L299.38 46.51Q299.09 46.80 298.87 47.23L298.87 47.23Q298.51 47.95 297.68 49.39Q296.86 50.83 295.85 52.31Q294.84 53.78 293.80 54.94Q292.75 56.09 291.89 56.23L291.89 56.23Q291.46 56.30 291.17 56.77Q290.88 57.24 290.74 57.74L290.74 57.74Q290.52 58.39 290.27 58.79Q290.02 59.18 289.44 58.61L289.44 58.61Q288.50 58.90 287.86 59.04Q287.21 59.18 286.56 59.26L286.56 59.26L286.20 59.26Q285.84 59.40 285.55 59.47Q285.26 59.54 284.90 59.54L284.90 59.54Q284.18 59.54 283.36 58.57Q282.53 57.60 281.70 56.09Q280.87 54.58 280.26 52.78Q279.65 50.98 279.36 49.32L279.36 49.32Q279.36 49.39 279.32 49.39Q279.29 49.39 279.29 49.46L279.29 49.46L279.29 49.39Q278.93 49.97 278.46 50.80Q277.99 51.62 277.42 52.34L277.42 52.34L275.83 54.29L275.47 54.79Q275.11 55.37 274.54 56.12Q273.96 56.88 273.67 56.88L273.67 56.88Q273.31 56.88 273.02 56.92Q272.74 56.95 272.38 56.88L272.38 56.88Q271.80 57.38 271.48 57.28Q271.15 57.17 270.79 56.95L270.79 56.95L270.86 56.95Q270.43 56.66 270.00 56.66L270.00 56.66Q269.14 56.74 268.16 56.34Q267.19 55.94 266.33 55.15Q265.46 54.36 264.78 53.10Q264.10 51.84 263.88 50.11L263.88 50.11Q263.88 49.82 263.84 49.57Q263.81 49.32 263.81 48.96L263.81 48.96Q263.81 47.45 264.31 45.83Q264.82 44.21 265.68 42.55L265.68 42.55L265.61 42.55Q266.62 39.74 268.38 37.15Q270.14 34.56 272.20 32.54Q274.25 30.53 276.34 29.30Q278.42 28.08 280.08 28.01L280.08 28.01Q280.80 28.01 281.45 28.19Q282.10 28.37 282.67 28.66L282.67 28.66Q283.32 28.94 283.82 29.38L283.82 29.38Q283.82 28.80 283.93 27.79Q284.04 26.78 284.22 25.63Q284.40 24.48 284.58 23.33Q284.76 22.18 284.90 21.24L284.90 21.24L285.12 19.94Q285.34 19.08 285.44 18.36Q285.55 17.64 285.70 16.85L285.70 16.85Q285.84 16.06 286.09 14.80Q286.34 13.54 286.70 12.31L286.70 12.31Q286.63 11.95 286.56 11.05Q286.49 10.15 286.49 9.14L286.49 9.14Q286.49 8.35 286.56 7.63Q286.63 6.91 286.78 6.34L286.78 6.34L287.14 6.48Q287.35 5.83 287.60 5.00Q287.86 4.18 287.93 4.10L287.93 4.10Q289.30 3.67 289.91 3.64Q290.52 3.60 291.10 3.67L291.10 3.67Q291.24 3.67 291.46 3.71Q291.67 3.74 291.89 3.67L291.89 3.67Q292.90 3.67 294.08 4.75Q295.27 5.83 295.63 8.57L295.63 8.57Q295.63 8.64 295.67 8.68Q295.70 8.71 295.70 8.78L295.70 8.78Q295.70 9 295.74 9.22Q295.78 9.43 295.78 9.79L295.78 9.79Q295.78 10.22 295.67 10.73Q295.56 11.23 295.42 11.88L295.42 11.88Q295.34 12.24 295.34 12.67Q295.34 13.10 295.34 13.54L295.34 13.54Q295.34 14.11 295.34 14.72Q295.34 15.34 295.42 15.98L295.42 15.98Q295.49 16.70 295.52 17.39Q295.56 18.07 295.56 18.86L295.56 18.86Q295.56 19.87 295.45 20.99Q295.34 22.10 294.98 23.11L294.98 23.11Q294.98 23.40 294.77 23.94Q294.55 24.48 294.34 25.06L294.34 25.06Q294.05 25.63 293.80 26.24Q293.54 26.86 293.62 27.00L293.62 27.00Q293.62 27.07 293.54 27.54Q293.47 28.01 293.40 28.62Q293.33 29.23 293.22 29.74Q293.11 30.24 293.11 30.38L293.11 30.38L293.11 30.53Q293.18 30.67 293.18 30.74Q293.18 30.82 293.33 30.96L293.33 30.96Q293.18 32.40 293.08 32.80Q292.97 33.19 292.68 34.06L292.68 34.06L292.32 35.14Q292.25 35.35 292.25 35.68Q292.25 36.00 292.25 36.29L292.25 36.29Q292.25 36.72 292.46 37.15L292.46 37.15Q292.46 37.22 292.43 37.26Q292.39 37.30 292.39 37.37L292.39 37.37L292.39 37.66L290.45 44.06Q290.45 44.21 290.38 44.28Q290.30 44.35 290.23 44.50L290.23 44.50Q289.66 45.72 289.22 46.94Q288.79 48.17 288.65 49.25L288.65 49.25Q288.72 49.39 288.76 49.54Q288.79 49.68 288.79 49.90L288.79 49.90L288.79 50.18Q288.86 50.54 288.86 51.05Q288.86 51.55 288.72 51.91L288.72 51.91L288.72 51.84Q288.50 52.99 288.32 53.96Q288.14 54.94 288.29 55.73ZM271.51 51.91L271.51 51.91Q271.58 52.49 271.73 53.24Q271.87 54.00 272.30 54.07L272.30 54.07Q273.02 53.78 274.14 52.52Q275.26 51.26 276.52 49.50Q277.78 47.74 279.00 45.61Q280.22 43.49 281.16 41.36Q282.10 39.24 282.64 37.40Q283.18 35.57 283.10 34.27L283.10 34.27Q283.03 34.13 283.00 33.95Q282.96 33.77 282.82 33.62L282.82 33.62Q281.81 34.06 280.51 35.32Q279.22 36.58 277.88 38.27Q276.55 39.96 275.29 41.87Q274.03 43.78 273.10 45.43L273.10 45.43L273.10 45.36L272.66 46.22Q272.09 47.02 271.58 48.06Q271.08 49.10 271.01 49.61L271.01 49.61L271.30 50.18L271.44 51.70Q271.44 51.77 271.48 51.80Q271.51 51.84 271.51 51.91ZM329.33 60.05L329.18 60.05Q328.39 59.26 327.38 57.35Q326.38 55.44 325.80 52.27L325.80 52.27L325.73 51.98Q325.58 51.41 325.69 50.80Q325.80 50.18 325.94 49.46L325.94 49.46Q326.52 46.08 326.56 41.90Q326.59 37.73 327.02 33.26L327.02 33.26Q327.02 32.54 326.99 31.82Q326.95 31.10 326.95 30.38L326.95 30.38Q326.95 29.02 327.17 27.36L327.17 27.36L327.24 23.40Q327.10 21.89 327.28 20.66Q327.46 19.44 327.60 18.22L327.60 18.22Q327.53 17.14 327.67 15.98Q327.82 14.83 328.03 13.72Q328.25 12.60 328.43 11.52Q328.61 10.44 328.68 9.36L328.68 9.36Q328.75 8.21 329.36 7.16Q329.98 6.12 330.84 5.33Q331.70 4.54 332.71 4.07Q333.72 3.60 334.51 3.60L334.51 3.60Q335.16 3.60 335.63 3.74Q336.10 3.89 336.46 4.10L336.46 4.10Q336.67 4.10 336.92 4.07Q337.18 4.03 337.39 4.03L337.39 4.03Q337.61 4.03 337.90 4.03Q338.18 4.03 338.26 4.32L338.26 4.32L337.61 12.53Q337.54 13.90 338.04 13.21Q338.54 12.53 339.48 10.94Q340.42 9.36 341.68 7.45Q342.94 5.54 344.45 4.39L344.45 4.39Q344.52 3.46 345.74 2.59Q346.97 1.73 348.41 1.26Q349.85 0.79 351.04 0.76Q352.22 0.72 352.22 1.44L352.22 1.44Q356.83 2.66 360.22 5.29Q363.60 7.92 364.97 12.96L364.97 12.96Q365.11 13.90 365.22 14.76Q365.33 15.62 365.47 16.56L365.47 16.56Q365.62 16.56 365.76 16.49L365.76 16.49Q365.76 16.56 365.80 16.56Q365.83 16.56 365.83 16.63L365.83 16.63Q366.05 17.86 365.90 18.94Q365.76 20.02 365.47 21.10L365.47 21.10L364.46 24.19Q364.03 25.13 363.67 26.06Q363.31 27.00 362.59 27.58L362.59 27.58L361.73 28.30Q360.72 29.02 359.78 29.77Q358.85 30.53 358.06 31.18Q357.26 31.82 356.72 32.22Q356.18 32.62 355.97 32.69L355.97 32.69Q355.18 33.12 352.91 34.02Q350.64 34.92 347.94 35.78Q345.24 36.65 342.72 37.30Q340.20 37.94 338.98 37.94L338.98 37.94Q338.47 37.94 338.00 37.84Q337.54 37.73 337.39 37.73L337.39 37.73Q337.39 37.94 337.46 38.02L337.46 38.02Q337.82 39.82 337.21 41.58Q336.60 43.34 335.81 45.72L335.81 45.72Q335.45 46.51 335.48 47.45Q335.52 48.38 335.02 49.25L335.02 49.25Q334.44 50.33 334.22 51.44Q334.01 52.56 333.83 53.53Q333.65 54.50 333.32 55.26Q333.00 56.02 332.14 56.30L332.14 56.30Q331.49 57.74 331.34 58.46L331.34 58.46Q330.55 58.68 330.12 59.36Q329.69 60.05 329.33 60.05L329.33 60.05ZM338.69 30.60L338.69 30.60Q339.12 31.97 340.06 33.19L340.06 33.19Q340.99 33.12 342.43 32.65Q343.87 32.18 345.38 31.54Q346.90 30.89 348.34 30.10Q349.78 29.30 350.78 28.51L350.78 28.51Q351.72 27.79 352.01 27.00Q352.30 26.21 353.09 25.49L353.09 25.49Q353.30 25.27 353.56 24.84Q353.81 24.41 353.99 23.87Q354.17 23.33 354.31 22.82Q354.46 22.32 354.60 22.03L354.60 22.03Q355.03 19.94 355.32 18.11Q355.61 16.27 355.61 14.40L355.61 14.40Q355.61 12.96 355.39 11.52L355.39 11.52Q355.18 10.15 354.92 9.36Q354.67 8.57 354.28 8.03Q353.88 7.49 353.38 6.95Q352.87 6.41 352.15 5.54L352.15 5.54L351.14 4.46Q350.71 4.18 350.32 4.00Q349.92 3.82 349.49 3.67L349.49 3.67Q348.19 4.97 346.93 6.16Q345.67 7.34 344.56 8.64Q343.44 9.94 342.50 11.48Q341.57 13.03 340.85 15.05L340.85 15.05L340.34 16.49Q340.20 16.99 340.09 17.42Q339.98 17.86 340.06 18.29L340.06 18.29L340.06 18.43Q339.48 20.59 339.19 22.39Q338.90 24.19 338.83 25.70Q338.76 27.22 338.76 28.44Q338.76 29.66 338.69 30.60ZM375.62 29.52L375.62 29.52Q376.34 29.74 377.32 30.24Q378.29 30.74 379.19 31.43Q380.09 32.11 380.70 32.80Q381.31 33.48 381.38 33.98L381.38 33.98Q381.53 35.14 380.52 35.35L380.52 35.35Q380.38 35.28 380.02 35.28L380.02 35.28Q378.79 35.28 376.74 35.78Q374.69 36.29 373.46 37.58L373.46 37.58L372.17 38.81Q371.16 39.67 370.19 40.68Q369.22 41.69 368.93 42.91L368.93 42.91Q368.35 43.78 368.03 44.57Q367.70 45.36 367.34 46.22L367.34 46.22L366.70 47.59Q366.34 48.38 366.01 49.07Q365.69 49.75 365.33 50.76L365.33 50.76L365.26 51.19L365.26 51.12Q365.11 51.48 365.00 51.95Q364.90 52.42 364.90 52.56L364.90 52.56L364.97 52.63L365.11 53.35Q365.11 53.71 365.26 54.29L365.26 54.29Q365.40 54.58 365.40 54.79L365.40 54.79Q365.47 55.87 366.19 55.87L366.19 55.87L366.41 55.87Q366.84 55.94 367.52 55.69Q368.21 55.44 369.43 54.07L369.43 54.07Q370.30 52.85 371.20 51.16Q372.10 49.46 372.89 47.81L372.89 47.81Q373.46 46.58 374.00 45.47Q374.54 44.35 375.12 43.56L375.12 43.56Q375.34 43.13 375.52 42.55Q375.70 41.98 375.84 41.40L375.84 41.40Q376.06 40.75 376.27 40.43Q376.49 40.10 376.63 39.89L376.63 39.89Q376.85 39.67 377.21 38.74L377.21 38.74Q377.21 38.30 377.93 38.02Q378.65 37.73 379.66 37.73L379.66 37.73Q379.94 37.73 380.16 37.69Q380.38 37.66 380.59 37.66L380.59 37.66Q381.53 37.58 382.39 37.73Q383.26 37.87 384.12 38.66L384.12 38.66Q384.19 38.81 384.19 38.95L384.19 38.95L384.19 39.02L384.34 39.10L384.26 39.10Q384.55 39.31 384.77 39.53Q384.98 39.74 385.06 40.18L385.06 40.18Q385.13 40.32 384.88 41.00Q384.62 41.69 384.34 42.41L384.34 42.41Q384.12 42.98 383.98 43.42Q383.83 43.85 383.83 43.99L383.83 43.99Q383.83 44.28 383.69 44.71L383.69 44.71Q383.54 45.07 383.36 45.65Q383.18 46.22 383.18 47.45L383.18 47.45Q383.11 48.31 382.93 49.00Q382.75 49.68 382.46 50.33L382.46 50.33Q382.32 50.76 382.18 51.19Q382.03 51.62 381.89 52.13L381.89 52.13L381.02 54.72Q380.30 56.16 380.38 56.52L380.38 56.52Q380.38 56.66 380.77 56.74Q381.17 56.81 381.46 56.81L381.46 56.81Q382.10 56.81 382.90 56.23Q383.69 55.66 384.48 54.83Q385.27 54.00 385.99 53.03Q386.71 52.06 387.22 51.19L387.22 51.19L389.38 47.38Q389.66 46.94 390.10 46.33Q390.53 45.72 390.89 44.86L390.89 44.86Q391.10 44.35 391.54 43.74Q391.97 43.13 392.26 42.55L392.26 42.55L393.98 39.82Q394.34 39.46 394.85 39.46L394.85 39.46Q395.50 39.46 395.57 40.18L395.57 40.18Q395.57 40.61 395.50 40.97L395.50 40.97Q395.50 41.26 394.85 42.19L394.85 42.19Q394.42 42.77 393.73 43.78Q393.05 44.78 392.11 46.44L392.11 46.44Q391.75 46.94 391.03 48.06Q390.31 49.18 389.52 50.47L389.52 50.47Q388.66 51.91 387.86 53.17Q387.07 54.43 386.64 55.01L386.64 55.01Q386.42 55.51 385.81 56.23Q385.20 56.95 384.44 57.60Q383.69 58.25 382.93 58.75Q382.18 59.26 381.67 59.26L381.67 59.26L381.10 59.47Q380.66 59.62 380.27 59.76Q379.87 59.90 379.44 59.90L379.44 59.90Q378.58 59.90 377.75 59.44Q376.92 58.97 376.24 58.25Q375.55 57.53 375.05 56.70Q374.54 55.87 374.33 55.22L374.33 55.22Q373.97 54.29 373.97 53.21L373.97 53.21Q373.90 52.92 373.90 52.60Q373.90 52.27 373.90 51.98L373.90 51.98Q373.90 51.70 373.90 51.41Q373.90 51.12 373.82 50.76L373.82 50.76L373.75 50.18Q373.75 50.11 373.79 50.08Q373.82 50.04 373.82 49.97L373.82 49.97Q373.90 49.61 373.90 49.68Q373.90 49.75 373.90 49.61L373.90 49.61L372.89 51.12L372.89 51.05L371.52 53.78Q371.23 54.07 371.09 54.32Q370.94 54.58 370.80 54.86L370.80 54.86Q370.22 55.80 369.54 56.59Q368.86 57.38 368.21 57.46L368.21 57.46L367.92 57.67Q367.20 58.25 366.59 58.64Q365.98 59.04 365.47 59.04L365.47 59.04Q364.18 59.04 362.70 58.64Q361.22 58.25 359.96 57.38Q358.70 56.52 357.84 55.15Q356.98 53.78 356.76 51.84L356.76 51.84Q356.69 50.62 356.94 49.21Q357.19 47.81 357.70 46.30Q358.20 44.78 358.92 43.27Q359.64 41.76 360.50 40.39L360.50 40.39L361.15 38.95Q362.02 37.80 362.84 36.79Q363.67 35.78 364.46 34.99L364.46 34.99Q365.98 33.41 367.49 32.33L367.49 32.33L368.57 31.82L368.50 31.82Q369.94 30.82 371.99 30.17Q374.04 29.52 375.26 29.52L375.26 29.52L375.62 29.52ZM409.18 64.73L409.18 64.73Q404.71 64.37 402.23 61.13Q399.74 57.89 399.31 53.06L399.31 53.06Q399.24 52.42 399.38 51.59Q399.53 50.76 399.74 49.75L399.74 49.75Q399.96 48.89 400.14 47.95Q400.32 47.02 400.39 46.15L400.39 46.15Q400.39 44.35 401.08 42.59Q401.76 40.82 402.48 39.38L402.48 39.38Q403.06 38.23 403.52 37.19Q403.99 36.14 403.85 35.14L403.85 35.14Q403.85 35.21 403.78 35.14L403.78 35.14L403.85 34.56Q403.92 34.42 403.92 34.13L403.92 34.13L403.92 34.06Q403.78 34.06 403.70 34.13L403.70 34.13Q403.49 34.27 403.27 34.38Q403.06 34.49 402.91 34.49L402.91 34.49Q402.77 34.49 402.70 34.42L402.70 34.42Q402.41 34.56 402.34 34.56L402.34 34.56Q401.76 34.56 400.90 34.20L400.90 34.20Q400.46 34.06 399.89 33.77Q399.31 33.48 399.10 33.84L399.10 33.84Q398.81 34.20 398.52 34.70Q398.23 35.21 397.94 35.93L397.94 35.93Q397.80 36.50 397.80 36.65Q397.80 36.79 397.44 37.22L397.44 37.22L397.44 37.15L397.01 38.09L396.36 39.38Q396.22 39.82 395.64 40.72Q395.06 41.62 394.42 42.59Q393.77 43.56 393.19 44.28Q392.62 45.00 392.47 45.00L392.47 45.00Q392.18 45.00 392.04 44.60Q391.90 44.21 391.75 43.20L391.75 43.20Q391.75 43.13 392.11 42.48Q392.47 41.83 392.94 41.00Q393.41 40.18 393.88 39.38Q394.34 38.59 394.56 38.16L394.56 38.16Q395.35 36.72 396.14 35.03Q396.94 33.34 396.86 32.54L396.86 32.54Q396.86 32.33 396.36 31.64Q395.86 30.96 395.28 30.17L395.28 30.17Q394.70 29.38 394.20 28.66Q393.70 27.94 393.70 27.58L393.70 27.58L393.62 27.22Q393.34 26.78 393.34 26.35L393.34 26.35Q393.26 24.48 393.73 22.32Q394.20 20.16 395.17 18.29Q396.14 16.42 397.58 15.19Q399.02 13.97 400.82 13.97L400.82 13.97Q402.34 13.97 403.49 14.87Q404.64 15.77 404.78 17.42L404.78 17.42Q404.86 18.72 404.50 20.30Q404.14 21.89 403.60 23.47Q403.06 25.06 402.37 26.57Q401.69 28.08 401.11 29.23L401.11 29.23Q400.75 30.02 400.57 30.35Q400.39 30.67 400.25 31.03L400.25 31.03Q400.25 31.03 400.39 30.96L400.39 30.96Q400.54 30.96 400.75 31.28Q400.97 31.61 401.40 31.46L401.40 31.46L401.69 32.04L401.69 31.97Q401.76 32.04 401.76 32.11L401.76 32.11Q402.12 32.11 402.70 31.90L402.70 31.90L402.62 31.90L405.50 30.17Q407.16 29.16 408.24 28.69Q409.32 28.22 409.68 28.15L409.68 28.15Q410.04 28.15 410.90 28.66Q411.77 29.16 412.70 29.99Q413.64 30.82 414.36 31.79Q415.08 32.76 415.15 33.70L415.15 33.70Q415.22 34.34 414.76 35.35Q414.29 36.36 413.50 37.80L413.50 37.80Q412.70 39.17 411.88 40.93Q411.05 42.70 410.26 45.00L410.26 45.00L408.74 48.46Q408.10 50.83 408.10 53.14L408.10 53.14L408.10 54.22L408.24 55.66Q408.24 55.80 408.28 55.87Q408.31 55.94 408.17 56.09L408.17 56.09L408.24 56.74Q408.38 57.74 408.56 58.79Q408.74 59.83 409.03 60.62Q409.32 61.42 409.79 61.70Q410.26 61.99 411.05 61.42L411.05 61.42Q411.19 61.56 411.55 61.56L411.55 61.56Q412.56 61.56 414.07 60.26Q415.58 58.97 417.17 56.92Q418.75 54.86 420.19 52.38Q421.63 49.90 422.57 47.45L422.57 47.45Q423.29 45.72 423.72 44.28L423.72 44.28Q424.08 43.13 424.37 42.23Q424.66 41.33 425.23 40.54L425.23 40.54Q425.59 40.10 425.63 40.21Q425.66 40.32 425.66 40.75L425.66 40.75Q425.66 41.04 425.74 41.26L425.74 41.26L425.88 41.40L425.81 41.40Q425.95 41.54 426.06 41.76Q426.17 41.98 426.06 42.59Q425.95 43.20 425.63 44.21Q425.30 45.22 424.66 46.87L424.66 46.87L424.22 48.10L423.65 49.25Q423.07 50.47 422.28 51.98Q421.49 53.50 421.13 54.00L421.13 54.00L420.41 55.08Q419.69 56.16 419.15 57.28Q418.61 58.39 418.03 59.54L418.03 59.54Q416.81 61.20 415.62 62.21Q414.43 63.22 413.35 63.79Q412.27 64.37 411.23 64.55Q410.18 64.73 409.18 64.73ZM338.69 69.12L335.02 69.05L337.82 67.82Q339.77 67.18 341.06 66.82Q342.36 66.46 343.22 66.24Q344.09 66.02 344.56 65.92Q345.02 65.81 345.24 65.81L345.24 65.81Q345.53 65.88 346.25 65.81Q346.97 65.74 348.26 65.45L348.26 65.45Q351.29 65.09 354.92 64.87Q358.56 64.66 362.45 64.66L362.45 64.66Q363.67 64.66 364.86 64.66Q366.05 64.66 367.27 64.73L367.27 64.73Q373.61 63.86 378.22 63.86L378.22 63.86Q381.31 63.86 383.90 64.19Q386.50 64.51 388.76 65.05Q391.03 65.59 393.08 66.35Q395.14 67.10 397.22 67.90L397.22 67.90Q399.89 68.11 401.80 68.87Q403.70 69.62 405.07 70.60Q406.44 71.57 407.27 72.61Q408.10 73.66 408.67 74.59L408.67 74.59L407.66 75.74Q405.36 78.41 404.14 79.60Q402.91 80.78 402.26 80.78L402.26 80.78Q401.69 80.78 401.18 79.96Q400.68 79.13 399.89 77.69L399.89 77.69Q399.31 76.82 397.98 76.03Q396.65 75.24 394.81 74.52Q392.98 73.80 390.78 73.15Q388.58 72.50 386.35 71.86L386.35 71.86Q384.77 71.42 383.29 71.03Q381.82 70.63 380.38 70.13L380.38 70.13Q377.86 69.41 375.48 68.98Q373.10 68.54 370.66 68.26Q368.21 67.97 365.65 67.79Q363.10 67.61 360.29 67.46L360.29 67.46L359.50 67.46Q359.35 67.46 359.35 67.46L359.35 67.46Q359.21 67.46 359.10 67.36Q358.99 67.25 358.85 67.39L358.85 67.39Q357.05 67.68 354.60 67.82L354.60 67.82Q352.94 67.97 351.43 68.08Q349.92 68.18 348.77 68.47L348.77 68.47Q347.90 68.69 346.36 68.76Q344.81 68.83 343.30 68.83L343.30 68.83Q342.07 68.90 341.03 68.90Q339.98 68.90 339.41 69.05L339.41 69.05Q338.98 69.26 338.69 69.12L338.69 69.12ZM397.87 26.28L397.87 26.28Q398.02 27.07 398.27 27.83Q398.52 28.58 398.74 29.09L398.74 29.09L398.81 29.38Q399.38 28.08 399.92 26.75Q400.46 25.42 400.90 24.23Q401.33 23.04 401.54 22.07Q401.76 21.10 401.69 20.45L401.69 20.45Q401.69 19.94 401.33 19.80L401.33 19.80Q400.82 20.02 400.25 20.77Q399.67 21.53 399.13 22.50Q398.59 23.47 398.23 24.48Q397.87 25.49 397.87 26.28ZM433.22 58.18L433.22 58.18Q430.99 57.96 429.01 57.02Q427.03 56.09 425.52 54.54Q424.01 52.99 423.07 50.94Q422.14 48.89 421.92 46.51L421.92 46.51Q421.78 45.22 422.06 43.20Q422.35 41.18 422.93 39.53L422.93 39.53Q423.94 36.86 425.48 34.31Q427.03 31.75 428.80 29.77Q430.56 27.79 432.36 26.57Q434.16 25.34 435.67 25.34L435.67 25.34Q436.90 25.34 437.51 25.81Q438.12 26.28 438.26 26.64L438.26 26.64L439.06 26.14Q439.34 25.92 439.45 25.85Q439.56 25.78 440.21 25.42L440.21 25.42Q440.42 25.42 441.25 26.50Q442.08 27.58 442.37 29.59L442.37 29.59Q442.51 31.25 442.22 32.04Q441.94 32.83 441.58 33.48L441.58 33.48Q441.22 34.06 440.96 34.63Q440.71 35.21 440.86 36.43L440.86 36.43Q440.93 37.01 440.50 37.12Q440.06 37.22 439.56 37.22L439.56 37.22Q438.70 37.22 438.12 36.79Q437.54 36.36 437.11 35.78Q436.68 35.21 436.43 34.52Q436.18 33.84 436.03 33.41L436.03 33.41L435.89 33.62L435.53 34.42L435.24 35.42Q434.88 35.93 434.59 36.54Q434.30 37.15 433.94 37.94L433.94 37.94L431.93 42.34Q431.21 43.99 430.78 45.83Q430.34 47.66 430.49 49.68L430.49 49.68Q430.70 51.77 431.57 53.50Q432.43 55.22 434.16 55.22L434.16 55.22Q434.59 55.22 435.02 54.86L435.02 54.86Q435.31 55.01 435.60 55.01L435.60 55.01Q436.46 55.01 437.58 54.11Q438.70 53.21 439.92 51.80Q441.14 50.40 442.44 48.71Q443.74 47.02 444.82 45.43L444.82 45.43L445.61 44.35Q446.18 43.63 446.62 42.84Q447.05 42.05 447.48 41.26L447.48 41.26Q448.34 39.60 449.32 38.16Q450.29 36.72 451.08 36.72L451.08 36.72Q451.87 36.72 452.02 37.51L452.02 37.51Q452.02 37.87 451.04 40.00Q450.07 42.12 447.55 45.36L447.55 45.36L447.55 45.29L446.90 46.44Q446.54 46.80 446.29 47.12Q446.04 47.45 445.82 47.81L445.82 47.81L444.96 49.03L444.24 49.90Q443.45 50.83 442.91 51.66Q442.37 52.49 441.79 53.50L441.79 53.50Q439.42 56.16 437.29 57.17Q435.17 58.18 433.22 58.18ZM470.30 45.58L470.30 45.58Q471.31 43.92 472.28 42.37Q473.26 40.82 473.76 40.68L473.76 40.68Q474.05 40.46 474.41 40.46L474.41 40.46L474.77 40.32L474.77 40.39Q474.98 40.25 475.06 40.28Q475.13 40.32 475.20 40.75L475.20 40.75Q475.27 41.33 474.80 42.05Q474.34 42.77 473.54 43.78L473.54 43.78Q473.26 44.35 472.68 45.25Q472.10 46.15 471.46 46.94L471.46 46.94L471.10 47.52Q471.10 47.59 470.95 47.88L470.95 47.88L470.74 48.53L469.30 50.40Q468.65 51.26 467.78 52.16Q466.92 53.06 466.42 53.93L466.42 53.93L466.27 54.07Q465.48 55.01 464.47 56.09Q463.46 57.17 462.46 57.82L462.46 57.82L461.38 58.54L460.22 59.33Q458.78 60.34 457.56 60.98Q456.34 61.63 454.54 61.56L454.54 61.56Q454.03 61.56 453.28 61.49Q452.52 61.42 451.66 61.27Q450.79 61.13 449.96 60.80Q449.14 60.48 448.49 60.05L448.49 60.05L448.56 60.12Q447.55 59.76 446.44 58.61Q445.32 57.46 444.96 55.01L444.96 55.01L445.03 55.01Q444.38 54.00 444.38 53.21L444.38 53.21L444.38 52.56Q444.38 52.20 444.38 51.84Q444.38 51.48 444.46 51.05L444.46 51.05Q444.46 50.26 444.49 49.61Q444.53 48.96 444.46 48.89L444.46 48.89Q444.46 47.74 444.60 46.58Q444.74 45.43 444.89 44.28L444.89 44.28Q444.89 44.06 444.96 43.99L444.96 43.99Q444.96 43.85 445.00 43.74Q445.03 43.63 445.03 43.49L445.03 43.49Q445.32 42.26 445.75 41.15Q446.18 40.03 446.76 38.95L446.76 38.95L447.26 37.58L447.55 37.15Q448.13 36.29 448.81 35.14Q449.50 33.98 450.07 33.62L450.07 33.62L451.01 32.62Q451.58 31.90 452.23 31.25Q452.88 30.60 453.53 30.02L453.53 30.02Q453.89 29.66 454.10 29.59L454.10 29.59L454.10 29.66L454.46 29.38Q455.11 28.80 455.76 28.73Q456.41 28.66 456.91 28.73L456.91 28.73L457.42 28.73Q457.70 28.73 458.28 28.37L458.28 28.37Q458.64 28.22 459.04 28.08Q459.43 27.94 459.65 28.08L459.65 28.08Q459.94 27.94 460.19 27.94Q460.44 27.94 460.66 27.94L460.66 27.94Q460.94 27.94 461.92 28.04Q462.89 28.15 463.97 28.62Q465.05 29.09 465.98 30.13Q466.92 31.18 467.14 32.98L467.14 32.98Q467.14 34.63 466.42 36.14L466.42 36.14Q466.34 36.36 466.06 36.94Q465.77 37.51 465.41 38.20Q465.05 38.88 464.58 39.53Q464.11 40.18 463.75 40.61L463.75 40.61L463.39 40.90Q462.02 42.84 459.94 44.42L459.94 44.42Q459.58 44.78 458.93 45.36Q458.28 45.94 457.56 46.51Q456.84 47.09 456.19 47.56Q455.54 48.02 455.26 48.17L455.26 48.17L453.46 49.03Q452.95 49.61 452.81 50.80Q452.66 51.98 452.66 53.28L452.66 53.28Q452.66 54.29 452.74 55.26Q452.81 56.23 452.88 56.88L452.88 56.88Q452.95 57.46 453.78 57.82Q454.61 58.18 455.54 58.18L455.54 58.18Q456.34 58.18 457.67 57.64Q459.00 57.10 460.58 56.02Q462.17 54.94 463.90 53.42Q465.62 51.91 467.14 49.97L467.14 49.97Q467.28 49.61 467.53 49.28Q467.78 48.96 467.93 48.67L467.93 48.67Q468.29 48.10 469.01 47.30Q469.73 46.51 470.30 45.58ZM463.75 34.34L463.75 34.34Q463.61 34.20 463.43 34.06Q463.25 33.91 463.03 33.77L463.03 33.77Q462.60 33.91 461.70 34.81Q460.80 35.71 460.01 36.79L460.01 36.79L459.65 37.08Q459.58 37.22 459.47 37.40Q459.36 37.58 459.29 37.80L459.29 37.80Q459.29 37.87 459.22 37.94Q459.14 38.02 459.14 38.09L459.14 38.09Q457.70 40.32 456.66 42.41Q455.62 44.50 455.26 45.58L455.26 45.58Q455.69 45.36 456.12 45.04Q456.55 44.71 456.91 44.35L456.91 44.35L457.49 43.85L458.50 43.06Q460.66 40.97 462.13 38.63Q463.61 36.29 463.75 34.34ZM478.66 54.86L478.66 54.86Q477.00 54.72 475.81 53.68Q474.62 52.63 473.87 51.34Q473.11 50.04 472.72 48.82Q472.32 47.59 472.25 47.02L472.25 47.02Q472.03 45.50 472.03 43.78L472.03 43.78Q472.03 39.74 473.11 34.99L473.11 34.99Q473.11 34.56 473.18 33.34Q473.26 32.11 473.44 30.53Q473.62 28.94 473.87 27.32Q474.12 25.70 474.34 24.55L474.34 24.55Q474.34 23.18 474.59 21.71Q474.84 20.23 475.20 19.08L475.20 19.08Q475.49 18.00 475.74 16.88Q475.99 15.77 476.06 14.54L476.06 14.54Q476.06 14.47 476.17 13.86Q476.28 13.25 476.50 12.46L476.50 12.46L476.28 11.95Q476.28 11.59 476.35 11.52L476.35 11.52Q476.57 9.72 476.78 7.70Q477.00 5.69 477.36 4.00Q477.72 2.30 478.19 1.22Q478.66 0.14 479.30 0.14L479.30 0.14Q480.10 0.14 481.72 1.04Q483.34 1.94 484.34 3.82L484.34 3.82Q485.35 4.39 486.36 5.69Q487.37 6.98 487.73 8.78L487.73 8.78Q487.94 10.01 487.37 12.06Q486.79 14.11 486.00 16.56L486.00 16.56L486.00 16.78Q486.07 17.14 486.11 17.42Q486.14 17.71 486.14 18.07L486.14 18.07L484.20 24.70Q484.34 25.56 484.42 26.75Q484.49 27.94 484.56 28.66L484.56 28.66Q484.56 28.80 484.60 28.91Q484.63 29.02 484.63 29.16L484.63 29.16L484.63 29.45L482.54 35.78Q482.54 36.14 482.62 36.36L482.62 36.36L482.62 36.50L482.76 37.30Q482.83 37.51 482.83 38.23L482.83 38.23Q482.83 38.66 482.98 39.38L482.98 39.38Q482.47 40.82 482.08 42.08Q481.68 43.34 481.32 44.57L481.32 44.57L481.68 46.94Q480.74 49.54 480.89 50.83L480.89 50.83Q481.03 51.34 481.39 51.34L481.39 51.34Q481.82 51.34 482.87 50.29Q483.91 49.25 485.14 47.59Q486.36 45.94 487.62 43.92Q488.88 41.90 489.89 39.96L489.89 39.96L489.82 39.96Q489.96 39.74 490.00 39.53Q490.03 39.31 490.10 39.17L490.10 39.17L490.32 38.30L490.32 38.38Q490.46 38.09 490.75 37.55Q491.04 37.01 491.33 36.36L491.33 36.36Q491.83 35.35 492.26 34.49Q492.70 33.62 492.98 33.62L492.98 33.62L493.13 33.62Q493.49 33.26 493.92 33.26L493.92 33.26Q494.42 33.26 494.64 33.77L494.64 33.77Q494.64 34.13 494.39 34.96Q494.14 35.78 492.91 38.02L492.91 38.02L492.98 38.02L492.70 38.74Q492.05 40.46 490.79 42.80Q489.53 45.14 488.02 47.45L488.02 47.45Q488.09 47.38 487.91 47.63Q487.73 47.88 487.58 48.02L487.58 48.02Q487.01 48.89 486.40 49.82Q485.78 50.76 485.14 51.55Q484.49 52.34 483.84 52.88Q483.19 53.42 482.69 53.42L482.69 53.42Q482.62 53.42 482.54 53.39Q482.47 53.35 482.40 53.35L482.40 53.35Q481.25 54.07 480.38 54.47Q479.52 54.86 478.66 54.86Z"/></svg>
