{
  "accessors": [
    {
      "bufferView": 3,
      "componentType": 5126,
      "count": 4658,
      "max": [
        0.36277541518211365,
        0.1355874091386795,
        0.035622600466012955
      ],
      "min": [
        -0.07922720164060593,
        -0.09895339608192444,
        -0.035622600466012955
      ],
      "type": "VEC3"
    },
    {
      "bufferView": 3,
      "byteOffset": 55896,
      "componentType": 5126,
      "count": 4658,
      "max": [
        1.0,
        1.0,
        1.0
      ],
      "min": [
        -1.0,
        -1.0,
        -1.0
      ],
      "type": "VEC3"
    },
    {
      "bufferView": 2,
      "componentType": 5126,
      "count": 4658,
      "max": [
        1.9990234375,
        0.9998000860214233
      ],
      "min": [
        -0.000499725341796875,
        0.00048828125
      ],
      "type": "VEC2"
    },
    {
      "bufferView": 1,
      "componentType": 5125,
      "count": 19026,
      "type": "SCALAR"
    },
    {
      "bufferView": 5,
      "componentType": 5126,
      "count": 37,
      "max": [
        687.250732421875,
        1.7881392011531716e-07,
        1.0,
        0.0,
        1.7782177508252062e-07,
        687.250732421875,
        1.0,
        0.0,
        6.804739172139307e-08,
        2.270412014589076e-14,
        687.250732421875,
        0.0,
        1.2646863112308893e-08,
        7.450580596923828e-09,
        2.5818175445274536e-22,
        1.0
      ],
      "min": [
        1.269706189077624e-07,
        -1.1920928955078125e-07,
        -1.7782177508252062e-07,
        0.0,
        -3.5026756243203366e-30,
        7.450583261459087e-09,
        -1.7881392011531716e-07,
        0.0,
        -1.0,
        -1.0,
        7.450571271050421e-09,
        0.0,
        -0.022177860140800476,
        -0.0686572790145874,
        -0.1791946440935135,
        1.0
      ],
      "type": "MAT4"
    },
    {
      "bufferView": 0,
      "componentType": 5123,
      "count": 4658,
      "type": "VEC4"
    },
    {
      "bufferView": 4,
      "componentType": 5126,
      "count": 4658,
      "max": [
        1.0,
        0.0,
        0.0,
        0.0
      ],
      "min": [
        1.0,
        0.0,
        0.0,
        0.0
      ],
      "type": "VEC4"
    }
  ],
  "asset": {
    "extras": {
      "author": "reaperslayz (https://sketchfab.com/reaperslayz)",
      "license": "CC-BY-4.0 (http://creativecommons.org/licenses/by/4.0/)",
      "source": "https://sketchfab.com/3d-models/reaver-sherif-94c17a4f625d44e3817d8e603e6a14d1",
      "title": "Reaver Sherif"
    },
    "generator": "Sketchfab-12.68.0",
    "version": "2.0"
  },
  "bufferViews": [
    {
      "buffer": 0,
      "byteLength": 37264,
      "byteStride": 8,
      "name": "shortBufferViews",
      "target": 34962
    },
    {
      "buffer": 0,
      "byteLength": 76104,
      "byteOffset": 37264,
      "name": "floatBufferViews",
      "target": 34963
    },
    {
      "buffer": 0,
      "byteLength": 37264,
      "byteOffset": 113368,
      "byteStride": 8,
      "name": "floatBufferViews",
      "target": 34962
    },
    {
      "buffer": 0,
      "byteLength": 111792,
      "byteOffset": 150632,
      "byteStride": 12,
      "name": "floatBufferViews",
      "target": 34962
    },
    {
      "buffer": 0,
      "byteLength": 74528,
      "byteOffset": 262424,
      "byteStride": 16,
      "name": "floatBufferViews",
      "target": 34962
    },
    {
      "buffer": 0,
      "byteLength": 2368,
      "byteOffset": 336952,
      "name": "floatBufferViews"
    }
  ],
  "buffers": [
    {
      "byteLength": 339320,
      "uri": "scene.bin"
    }
  ],
  "materials": [
    {
      "doubleSided": true,
      "name": "Revolver_Soulstealer_MI",
      "pbrMetallicRoughness": {
        "baseColorFactor": [
          0.8,
          0.8,
          0.8,
          1.0
        ],
        "metallicFactor": 0.0,
        "roughnessFactor": 0.8040408205773457
      }
    }
  ],
  "meshes": [
    {
      "name": "GN_Revolver_Soulstealer_Skelmesh.mo_Revolver_Soulstealer_MI_0",
      "primitives": [
        {
          "attributes": {
            "JOINTS_0": 5,
            "NORMAL": 1,
            "POSITION": 0,
            "TEXCOORD_0": 2,
            "WEIGHTS_0": 6
          },
          "indices": 3,
          "material": 0,
          "mode": 4
        }
      ]
    }
  ],
  "nodes": [
    {
      "children": [
        1
      ],
      "matrix": [
        1.0,
        0.0,
        0.0,
        0.0,
        0.0,
        2.220446049250313e-16,
        -1.0,
        0.0,
        0.0,
        1.0,
        2.220446049250313e-16,
        0.0,
        0.0,
        0.0,
        0.0,
        1.0
      ],
      "name": "Sketchfab_model"
    },
    {
      "children": [
        2
      ],
      "matrix": [
        0.009999999776482582,
        0.0,
        0.0,
        0.0,
        0.0,
        0.0,
        0.009999999776482582,
        0.0,
        0.0,
        -0.009999999776482582,
        0.0,
        0.0,
        0.0,
        0.0,
        0.0,
        1.0
      ],
      "name": "61e9a8b5038d4a95bb5a228028ea2a1d.fbx"
    },
    {
      "children": [
        3
      ],
      "name": "RootNode"
    },
    {
      "children": [
        4
      ],
      "matrix": [
        687.250732421875,
        0.0,
        0.0,
        0.0,
        0.0,
        -0.00011196735623870562,
        -687.2507324218659,
        0.0,
        0.0,
        687.2507324218659,
        -0.00011196735623870562,
        0.0,
        0.0,
        0.0,
        0.0,
        1.0
      ],
      "name": "GN_Revolver_Soulstealer_Skelmesh.ao"
    },
    {
      "children": [
        5,
        43,
        42
      ],
      "name": "Object_4"
    },
    {
      "children": [
        6
      ],
      "name": "_rootJoint"
    },
    {
      "children": [
        7
      ],
      "name": "Skeleton_01",
      "rotation": [
        0.4999999403953552,
        0.5,
        0.5000001192092896,
        0.49999991059303284
      ],
      "scale": [
        1.0,
        0.9999999403953552,
        1.0
      ]
    },
    {
      "children": [
        8,
        10,
        12,
        14,
        16,
        18,
        20,
        22,
        24,
        26,
        28,
        30,
        32,
        34,
        36,
        38,
        40
      ],
      "name": "Root_02",
      "rotation": [
        -1.7763559923673032e-15,
        -6.617444900424221e-22,
        -3.308722450212111e-24,
        1.0
      ],
      "translation": [
        1.4116091608191005e-23,
        -7.450580596923828e-09,
        -1.4116078986416522e-23
      ]
    },
    {
      "children": [
        9
      ],
      "name": "Muzzle_03",
      "rotation": [
        0.5000001192092896,
        0.4999999701976776,
        0.5000001192092896,
        -0.5
      ],
      "scale": [
        1.0,
        0.9999999403953552,
        1.0
      ],
      "translation": [
        -6.325876711343881e-08,
        0.0887107104063034,
        0.35556167364120483
      ]
    },
    {
      "name": "Muzzle_end_020",
      "rotation": [
        0.0,
        -1.1743286357707587e-23,
        0.0,
        1.0
      ],
      "translation": [
        0.0,
        0.05000000074505806,
        -1.3877787807814457e-17
      ]
    },
    {
      "children": [
        11
      ],
      "name": "Bullet_04",
      "rotation": [
        0.5000000596046448,
        0.4999999403953552,
        0.5,
        -0.4999999701976776
      ],
      "scale": [
        1.0,
        0.9999999403953552,
        1.0
      ],
      "translation": [
        -4.888407900693892e-09,
        0.08856640011072159,
        0.09313688427209854
      ]
    },
    {
      "name": "Bullet_end_021",
      "rotation": [
        0.0,
        -6.949687870154344e-24,
        5.293955920339377e-23,
        1.0
      ],
      "translation": [
        1.3877787807814457e-17,
        0.05000000074505806,
        0.0
      ]
    },
    {
      "children": [
        13
      ],
      "name": "Stat_Track_05",
      "rotation": [
        -0.5000001192092896,
        -0.49999988079071045,
        -0.4999999701976776,
        0.5000000596046448
      ],
      "scale": [
        1.0,
        0.9999999403953552,
        1.0
      ],
      "translation": [
        0.017548244446516037,
        0.10052061080932617,
        0.035584140568971634
      ]
    },
    {
      "name": "Stat_Track_end_022",
      "rotation": [
        -1.3234889800848443e-23,
        -7.059169142024537e-24,
        -5.293955920339377e-23,
        1.0
      ],
      "translation": [
        6.938893903907228e-18,
        0.04999999701976776,
        -1.3877787807814457e-17
      ]
    },
    {
      "children": [
        15
      ],
      "name": "Hammer_06",
      "rotation": [
        -0.5000001192092896,
        -0.49999988079071045,
        -0.4999999701976776,
        0.5000000596046448
      ],
      "scale": [
        1.0,
        0.9999999403953552,
        1.0
      ],
      "translation": [
        6.587827172666039e-09,
        0.06444108486175537,
        0.022177856415510178
      ]
    },
    {
      "name": "Hammer_end_023",
      "rotation": [
        -1.3234889800848443e-23,
        -7.059169142024537e-24,
        -5.293955920339377e-23,
        1.0
      ],
      "translation": [
        0.0,
        0.05000000074505806,
        0.0
      ]
    },
    {
      "children": [
        17
      ],
      "name": "Reflex_07",
      "rotation": [
        -0.5000000596046448,
        -0.49999991059303284,
        -0.5,
        0.5
      ],
      "scale": [
        1.0,
        0.9999999403953552,
        1.0
      ],
      "translation": [
        -3.173062879113786e-08,
        0.109084352850914,
        0.1108747273683548
      ]
    },
    {
      "name": "Reflex_end_00",
      "rotation": [
        1.3234889800848443e-23,
        -6.084641934150708e-25,
        0.0,
        1.0
      ],
      "translation": [
        0.0,
        0.05000000074505806,
        -1.3877787807814457e-17
      ]
    },
    {
      "children": [
        19
      ],
      "name": "Charging_Handle_08",
      "rotation": [
        1.4901158351676713e-07,
        -5.960464477539063e-08,
        2.6349389114837737e-14,
        1.0
      ],
      "translation": [
        -2.7598474616752355e-08,
        0.06865723431110382,
        0.1791946440935135
      ]
    },
    {
      "name": "Charging_Handle_end_024",
      "rotation": [
        -6.497670571462705e-24,
        1.3234889800848443e-23,
        3.308722450212111e-24,
        1.0
      ],
      "translation": [
        3.308722450212111e-24,
        0.05000000447034836,
        0.0
      ]
    },
    {
      "children": [
        21
      ],
      "name": "Trigger_09",
      "rotation": [
        -8.881737610189153e-16,
        1.4901168299275014e-08,
        -3.6415315207705135e-14,
        1.0
      ],
      "translation": [
        -3.601429909849685e-08,
        0.035213496536016464,
        0.07076483964920044
      ]
    },
    {
      "name": "Trigger_end_025",
      "rotation": [
        -6.435890140809416e-24,
        2.6469779601696886e-23,
        0.0,
        1.0
      ],
      "translation": [
        -6.617444900424222e-24,
        0.050000011920928955,
        0.0
      ]
    },
    {
      "children": [
        23
      ],
      "name": "Mag_Holder_010",
      "rotation": [
        -2.6645344120674284e-15,
        1.4901168299275014e-08,
        7.993605777301127e-15,
        1.0
      ],
      "translation": [
        -6.217184989054658e-09,
        0.06857325881719589,
        0.09697089344263077
      ]
    },
    {
      "name": "Mag_Holder_end_026",
      "rotation": [
        4.533743761068915e-24,
        -0.0,
        -3.308722450212111e-24,
        1.0
      ],
      "translation": [
        3.308722450212111e-24,
        0.05000000447034836,
        0.0
      ]
    },
    {
      "children": [
        25
      ],
      "name": "Bullet6_011",
      "rotation": [
        0.5000000596046448,
        0.4999999403953552,
        0.5,
        -0.4999999701976776
      ],
      "scale": [
        1.0,
        0.9999999403953552,
        1.0
      ],
      "translation": [
        -0.017314985394477844,
        0.07856883108615875,
        0.09313687682151794
      ]
    },
    {
      "name": "Bullet6_end_027",
      "rotation": [
        0.0,
        -6.949687870154344e-24,
        5.293955920339377e-23,
        1.0
      ],
      "translation": [
        0.0,
        0.04999999701976776,
        0.0
      ]
    },
    {
      "children": [
        27
      ],
      "name": "Bullet5_012",
      "rotation": [
        0.5000001192092896,
        0.49999988079071045,
        0.5,
        -0.4999999701976776
      ],
      "scale": [
        1.0,
        0.9999999403953552,
        1.0
      ],
      "translation": [
        -0.017314331606030464,
        0.05857484042644501,
        0.09313687682151794
      ]
    },
    {
      "name": "Bullet5_end_028",
      "rotation": [
        -5.293955920339377e-23,
        1.2181779425040117e-24,
        0.0,
        1.0
      ],
      "translation": [
        0.0,
        0.04999999701976776,
        -6.938893903907228e-18
      ]
    },
    {
      "children": [
        29
      ],
      "name": "Bullet4_013",
      "rotation": [
        0.5000001788139343,
        0.49999991059303284,
        0.5000001192092896,
        -0.5
      ],
      "scale": [
        1.0,
        0.9999999403953552,
        1.0
      ],
      "translation": [
        1.3021243603361654e-06,
        0.048578403890132904,
        0.09313687682151794
      ]
    },
    {
      "name": "Bullet4_end_029",
      "rotation": [
        5.293955920339377e-23,
        3.0458487530435025e-24,
        -0.0,
        1.0
      ],
      "translation": [
        0.0,
        0.05000000074505806,
        6.938893903907228e-18
      ]
    },
    {
      "children": [
        31
      ],
      "name": "Bullet3_014",
      "rotation": [
        0.5000001788139343,
        0.49999991059303284,
        0.5000001192092896,
        -0.5
      ],
      "scale": [
        1.0,
        0.9999999403953552,
        1.0
      ],
      "translation": [
        0.017316283658146858,
        0.05857596918940544,
        0.09313687682151794
      ]
    },
    {
      "name": "Bullet3_end_030",
      "rotation": [
        5.293955920339377e-23,
        3.0458487530435025e-24,
        -0.0,
        1.0
      ],
      "translation": [
        0.0,
        0.05000000447034836,
        -6.938893903907228e-18
      ]
    },
    {
      "children": [
        33
      ],
      "name": "Bullet2_015",
      "rotation": [
        0.5000000596046448,
        0.4999999403953552,
        0.5,
        -0.4999999701976776
      ],
      "scale": [
        1.0,
        0.9999999403953552,
        1.0
      ],
      "translation": [
        0.017315631732344627,
        0.07856996357440948,
        0.09313687682151794
      ]
    },
    {
      "name": "Bullet2_end_031",
      "rotation": [
        0.0,
        -6.949687870154344e-24,
        5.293955920339377e-23,
        1.0
      ],
      "translation": [
        1.3877787807814457e-17,
        0.05000000074505806,
        0.0
      ]
    },
    {
      "children": [
        35
      ],
      "name": "Gun_Buddy_016",
      "rotation": [
        -0.5000001192092896,
        -0.49999988079071045,
        -0.4999999701976776,
        0.5000000596046448
      ],
      "scale": [
        1.0,
        0.9999999403953552,
        1.0
      ],
      "translation": [
        0.01904236525297165,
        0.08781266212463379,
        0.21037118136882782
      ]
    },
    {
      "name": "Gun_Buddy_end_032",
      "rotation": [
        -1.3234889800848443e-23,
        -7.059169142024537e-24,
        -5.293955920339377e-23,
        1.0
      ],
      "translation": [
        0.0,
        0.05000000074505806,
        0.0
      ]
    },
    {
      "children": [
        37
      ],
      "name": "Mag_Rotator_017",
      "rotation": [
        -1.7763559923673032e-15,
        -5.9604641222676946e-08,
        -1.7763557806090664e-15,
        1.0
      ],
      "translation": [
        0.009651651605963707,
        0.025866860523819923,
        0.13990254700183868
      ]
    },
    {
      "name": "Mag_Rotator_end_033",
      "rotation": [
        3.94277413594893e-24,
        1.3234889800848443e-23,
        3.308722450212111e-24,
        1.0
      ],
      "translation": [
        0.0,
        0.05000000447034836,
        2.7755575615628914e-17
      ]
    },
    {
      "children": [
        39
      ],
      "name": "Magazine_Extra_018",
      "rotation": [
        -0.5000000596046448,
        -0.4999999403953552,
        -0.4999999701976776,
        0.5000000596046448
      ],
      "scale": [
        1.0,
        0.9999999403953552,
        1.0
      ],
      "translation": [
        -4.481380244669708e-08,
        -0.210175558924675,
        0.03249740228056908
      ]
    },
    {
      "name": "Magazine_Extra_end_034",
      "rotation": [
        -6.617444900424222e-24,
        -9.051797078732983e-24,
        -0.0,
        1.0
      ],
      "translation": [
        6.938893903907228e-18,
        0.05000000074505806,
        0.0
      ]
    },
    {
      "children": [
        41
      ],
      "name": "Left_Hand_Target_019",
      "rotation": [
        -2.664533565034481e-15,
        1.4901168299275014e-08,
        -8.88178366760566e-16,
        1.0
      ],
      "translation": [
        3.2751623635363103e-09,
        -0.11384100466966629,
        -0.10619699209928513
      ]
    },
    {
      "name": "Left_Hand_Target_end_035",
      "rotation": [
        -4.27766373401607e-24,
        -0.0,
        3.308722450212111e-24,
        1.0
      ],
      "translation": [
        -6.617444900424222e-24,
        0.05000000447034836,
        1.3877787807814457e-17
      ]
    },
    {
      "matrix": [
        687.250732421903,
        -3.483410364628001e-12,
        -6.517568291162547e-12,
        0.0,
        -6.51756829116254e-12,
        1.2628845094041196e-12,
        -687.250732421903,
        0.0,
        3.4834103646279704e-12,
        687.2507324218946,
        1.2628845094040711e-12,
        0.0,
        0.0,
        0.0,
        0.0,
        1.0
      ],
      "name": "Object_42"
    },
    {
      "mesh": 0,
      "name": "Object_43",
      "skin": 0
    }
  ],
  "scene": 0,
  "scenes": [
    {
      "name": "Sketchfab_Scene",
      "nodes": [
        0
      ]
    }
  ],
  "skins": [
    {
      "inverseBindMatrices": 4,
      "joints": [
        5,
        6,
        7,
        8,
        9,
        10,
        11,
        12,
        13,
        14,
        15,
        16,
        17,
        18,
        19,
        20,
        21,
        22,
        23,
        24,
        25,
        26,
        27,
        28,
        29,
        30,
        31,
        32,
        33,
        34,
        35,
        36,
        37,
        38,
        39,
        40,
        41
      ],
      "skeleton": 5
    }
  ]
}
